<?xml version="1.0" encoding="utf-8"?>
<!-- Generator: Adobe Illustrator 26.3.1, SVG Export Plug-In . SVG Version: 6.00 Build 0)  -->
<svg version="1.1"
	 id="svg3004" xmlns:svg="http://www.w3.org/2000/svg" xmlns:rdf="http://www.w3.org/1999/02/22-rdf-syntax-ns#" xmlns:cc="http://creativecommons.org/ns#" xmlns:dc="http://purl.org/dc/elements/1.1/"
	 xmlns="http://www.w3.org/2000/svg" xmlns:xlink="http://www.w3.org/1999/xlink" x="0px" y="0px" viewBox="0 0 640 640"
	 style="enable-background:new 0 0 640 640;" xml:space="preserve">
<style type="text/css">
	.st0{fill:#C55B13;}
	.st1{fill:#FAE195;}
	.st2{fill:#C45B14;}
	.st3{fill:#090805;}
	.st4{fill:#060605;}
</style>
<g>
	<path class="st0" d="M169,487.1c-27.1,0-54.2,0-83,0c0-11.8,0-23.8,0-35.6c-14.8-11.4-31-3.2-46.3-7.1c0-23.2,0-46.9,0-72.1
		c6.1-2.5,13.8-0.7,21.2-0.9c7.6-0.3,15.3-0.1,23.7-0.1c0-26,0-51.3,0-78.2c14.2,0,27.8,0,42.1,0c0-11.4,0-21.2,0-31.4
		c12.6-4.6,26.6,2.8,37.6-6.2c15.4,9.2,10.9,24.5,11.5,38.1c2.9,34.3-2.7,69,3.7,104.8c36.7,3.7,71.7,3.6,106.4,0.3
		c12.3-21.8-1.6-46.6,12.7-66.2c14-7.7,28.1-7.6,42.3-0.5c9.4,10.2,7,23,7.6,35.1c0.5,9.9-0.8,20,4.9,31.3
		c34.5,4.3,69.4,3,106.6,0.8c7.6-36.1,1.1-71.5,4.3-106.3c-0.1-11.4-2.4-23.3,6.9-32.7c13.1,0,26.2,0,41,0c0,10.2,0,20.6,0,31.6
		c14.5,0,27.4,0,41.9,0c1.7,12.6,0.5,24.7,0.7,36.7c0.2,12.2,0,24.4,0,35.9c2.4,2.4,4,4,6.4,6.4c12.1,0,25,0,39,0
		c0,24.9,0,49.1,0,74.1c-12.8,0-25.7,0-37.9,0c-2.9,2.9-5.1,5.1-7.4,7.4c0,7.5,0,15.2,0,23.5c-2.1,1.7-4.4,3.6-8.3,6.7
		c-21.1,0-44.1-0.1-67.2,0.1c-3.4,0-8.2-1.8-8.3,4.6c-11.8,9.3-24.4,8.3-37.4,3c-12-7.4-9.4-22.1-18.1-36
		c-62.3-2.6-126.7-1-188.9-0.9c-11.8,12.2-7.2,29-20,36.7C193.7,495.5,180.9,496.5,169,487.1z"/>
	<path class="st1" d="M206.2,487.1c0.8-5,5.7-8.1,4.9-14.3c-1.1-8.3-0.3-16.8-0.3-26.3c72.3,0,144.5,0,218.4,0
		c0,8.3,0.8,17.5-0.3,26.3c-0.8,6.1,4.1,9.3,4.9,14.3c3.9,24.9,5.5,49.7-1.8,71.8c-10.4,10.4-22.7,7.7-34.5,14.7
		c-1.6,24.9-16.5,39.4-42.4,38.2c-8.8,9.1-6.5,21-14.3,28.1c-13.9,0-27.9,0-41.8,0c-7.1-6.8-6-17.2-11.2-25.1
		c-8.7-6.9-21.2-3.5-32-12.5c-6.8-6-4.1-18.4-10.1-28.2c-9.6-9.2-25.6-2.9-37.8-15.5C200.6,537,202.4,512.1,206.2,487.1z"/>
	<path class="st2" d="M169,255.5c0-11.6,0-23.1,0-36.3c11.9,6.5,24,2.9,34.8,4c2.9-2.9,4.6-4.6,7-7c0-12.1,0-25,0-38.7
		c15.3,0,29.8,0,44.9,0c3.8-10.8-0.1-21.7,2.4-32.5c41,0,81.8,0,124.2,0c0,9.9,0,20.3,0,31.4c16.1,0,30.6,0,46.7,0
		c0,15.7,0,30.8,0,46.5c14.5,0,27.5,0,42.1,0c0,9.8,0,18.8,0,27.9c-6.8,12.3-18.9,11.3-30.4,12.2c-15.1,1.1-30.8-2.5-44.9,3.8
		c-6.7,7.7-5.6,18.3-15.4,29c-38.5,7.8-80.6,5.7-118.9,0.9c-11.8-10.2-9.9-22-16.8-30.1C220.7,256.3,192.4,271.9,169,255.5z"/>
	<path class="st3" d="M169,255.5c29.2,0,58.3,0,88.2,0c0,12.8,0,24.1,0,36.2c42.1,0,83.3,0,125.4,0c0-11.9,0-23.2,0-36.2
		c23.7,0,46.6-0.1,69.6,0.1c6.8,0,13.4,0,18.9-4.7c0,3.1,0,6.2,0,9.3c0,10.8,0,21.6,0,32.4c-8.1,8.4-20.7,5.4-30.6,12.1
		c-9.6,20.7,2.5,45.6-9.8,66.3c-30.6,14.9-43.2,9.6-60.2-25.4c-9-5.8-21.5-2.9-29.6-11.3c-13.9,0-27.9,0-41.8,0
		c-8.1,8.3-20.5,5.7-29.4,11.4c-6.4,7.3-4.9,17.9-13.2,27c-13.5,8.5-29.3,7.8-45.7,0.4c-14.2-20.9-2.2-45.7-10.9-67.3
		c-8.5-8.4-22.7-4.1-31-13.2c0-6.9-0.8-13.9,0.2-20.6c1-6.6-2.4-11.2-4.9-16.5C165.9,255.5,167.5,255.5,169,255.5z"/>
	<path class="st4" d="M206.2,487.1c6.4,0.1,4.6,5,4.6,8.3c0.1,21.5,0.1,42.9,0.1,65.2c13.8,0,26.8,0,38.9,0c3,3,5.2,5.2,8.2,8.2
		c0,10.6,0,21.9,0,34c13.7,0,26.7,0,41.2,0c0,12.9,0,25,0,37.2c-43,0-85.9,0-129.7,0c0-12.4,0-23.7,0-36.6c-14.1,0-27.6,0-41.7,0
		c0-26.7,0-51.8,0-78.5c12.8,0,26.3,0,41.2,0c0-13.6,0-25.7,0-37.8C181.4,487.1,193.8,487.1,206.2,487.1z"/>
	<path class="st4" d="M341,640c0-11.6,0-23.1,0-36.3c13.4,0,26.9,0,38.8,0c3.3-3.3,4.9-4.9,7.4-7.3c0-10.5,0-21.9,0-34.9
		c14.2,0,27.8,0,42.2,0c0-23.1-0.1-44.6,0.1-66c0-3.3-1.8-8.2,4.6-8.3c12.4,0,24.8,0,37.2,0c0,11.5,0,23,0,35.9
		c13.1,3,26.9-0.4,41,1.9c0,25.5,0,51.2,0,77.7c-13.3,0-26.2,0-40.7,0c0,12.5,0,24.4,0,37.4C426.9,640,384,640,341,640z"/>
	<path class="st1" d="M341,334.3c13.1,0,26.2,0,40.5,0c3.4,9.9-0.3,20.7,2.1,30.8c1.6,1.6,3.3,3.3,5.6,5.6c12.2,0,25.1,0,39.5,0
		c0-25.1,0-50.9,0-78.1c15.1,0,28.8,0,42.5,0c0,37.8,0,75.6,0,113.3c-0.5,0.6-1,1.2-1.6,1.6c-0.6,0.4-1.3,0.8-2,0.8
		c-41.7,0-83.4,0-126.6,0C341,383.2,341,358.7,341,334.3z"/>
	<path class="st1" d="M169,292.6c13.1,0,26.3,0,41.5,0c0.7,12.6,0.2,25.4,0.3,38.1c0.1,13,0,26,0,39.8c15.1,0,29.6,0,45.2,0
		c3.5-10.7-0.4-23,2.2-36.2c13.5,0,27.2,0,40.9,0c0,23.9,0,47.8,0,71.7c-0.5,0.6-1,1.2-1.6,1.6c-0.6,0.4-1.3,0.7-2,0.7
		c-41.7,0-83.3,0-126.6,0C169,369.3,169,330.9,169,292.6z"/>
</g>
</svg>
