<?xml version="1.0" encoding="utf-8"?>
<!-- Generator: Adobe Illustrator 26.3.1, SVG Export Plug-In . SVG Version: 6.00 Build 0)  -->
<svg version="1.1"
	 id="svg3004" xmlns:svg="http://www.w3.org/2000/svg" xmlns:rdf="http://www.w3.org/1999/02/22-rdf-syntax-ns#" xmlns:cc="http://creativecommons.org/ns#" xmlns:dc="http://purl.org/dc/elements/1.1/"
	 xmlns="http://www.w3.org/2000/svg" xmlns:xlink="http://www.w3.org/1999/xlink" x="0px" y="0px" viewBox="0 0 640 640"
	 style="enable-background:new 0 0 640 640;" xml:space="preserve">
<style type="text/css">
	.st0{fill:#040103;}
	.st1{fill:#070107;}
	.st2{fill:#FAFB96;}
	.st3{fill:#FBCB48;}
	.st4{fill:#FCFB3B;}
	.st5{fill:#FB49FA;}
	.st6{fill:#F9367B;}
	.st7{fill:#FB96FA;}
	.st8{fill:#B7B7B7;}
	.st9{fill:#F9C497;}
	.st10{fill:#0253A7;}
	.st11{fill:#037DFA;}
	.st12{fill:#FDFDFD;}
	.st13{fill:#FBD9BD;}
	.st14{fill:#FCFB01;}
</style>
<g>
	<path class="st0" d="M408.9,22.9c0,3.5,0,7,0,10.5c0,8.8,0,17.6,0,26.4c0,0.6,0,1.2,0,1.8c-22.9,0-45.8,0-68.7,0
		c0-12.9,0-25.8,0-38.7c0-0.6,0-1.2,0-1.8c6.5,0,12.9,0,19.4,0c0.9,1.9,2.1,3.6,1.9,6.1c-0.4,3.7-0.1,7.4-0.1,11.1
		c0,1.2,0.1,2.3,1.8,2.2c7.5,0,15,0,22.9,0c0-6.7,0-13,0-19.3c7,0,14.1,0,21.1,0C407.1,22.3,407.7,22.9,408.9,22.9z"/>
	<path class="st0" d="M299.8,17.6c0-5.3,0-10.5,0-15.8c1.2,0,1.8-0.5,1.8-1.8c5.9,0,11.7,0,17.6,0c6.5,0,12.9,0,19.4,0
		c0,1.2,0.5,1.8,1.8,1.8c0,5.3,0,10.5,0,15.8c-1.9,0.3-3.1,1.9-5.4,1.9c-9.9-0.3-19.8-0.3-29.7,0C302.9,19.5,301.6,17.9,299.8,17.6z
		"/>
	<path class="st0" d="M364.9,0c6.5,0,12.9,0,19.4,0c0,1.2,0.5,1.8,1.8,1.8c0,5.3,0,10.5,0,15.8c-1.8-0.1-2.4,2-4.5,1.9
		c-5.4-0.3-10.8-0.1-16.7-0.1C364.9,12.6,364.9,6.3,364.9,0z"/>
	<path class="st1" d="M299.8,17.6c1.9,0.3,3.1,1.9,5.4,1.9c9.9-0.3,19.8-0.3,29.7,0c2.3,0.1,3.5-1.6,5.4-1.9c0,1.2,0,2.3,0,3.5
		c0,0.6,0,1.2,0,1.8c-13.3,0-26.7,0-40.5,0c0,13.2,0,25.9,0,38.7c-1.2,0-2.3,0-3.5,0c0.3-1.9,1.9-3.1,1.9-5.4
		c-0.3-9.9-0.3-19.8,0-29.7c0.1-2.3-1.6-3.5-1.9-5.4C298.2,20.7,299.3,19.5,299.8,17.6z"/>
	<path class="st1" d="M364.9,0c0,6.3,0,12.6,0,19.3c5.8,0,11.2-0.2,16.7,0.1c2.1,0.1,2.7-2,4.5-1.9c0,1.2,0,2.3,0,3.5
		c-7.5,0-15,0-22.9,0c0,6.7,0,13,0,19.3c-1.6,0.1-1.8-1-1.8-2.2c0-3.7-0.3-7.4,0.1-11.1c0.3-2.5-0.9-4.2-1.9-6.1
		c1.7,0.1,1.8-1.1,1.8-2.3c0-6.1,0-12.2,0-17.9C362.5-0.5,363.8,0.2,364.9,0z"/>
	<path class="st1" d="M408.9,22.9c-1.2,0-1.8-0.5-1.8-1.8C408.4,21.1,408.9,21.6,408.9,22.9z"/>
	<path class="st1" d="M386,1.8c-1.2,0-1.8-0.5-1.8-1.8C385.5,0,386.1,0.5,386,1.8z"/>
	<path class="st1" d="M340.2,1.8c-1.2,0-1.8-0.5-1.8-1.8c0.6,0,1.2,0,1.8,0C340.2,0.6,340.2,1.2,340.2,1.8z"/>
	<path class="st1" d="M301.5,0c0,1.2-0.5,1.8-1.8,1.8c0-0.6,0-1.2,0-1.8C300.3,0,300.9,0,301.5,0z"/>
	<path class="st0" d="M296.2,21.1c0.3,1.9,1.9,3.1,1.9,5.4c-0.3,9.9-0.3,19.8,0,29.7c0.1,2.3-1.6,3.5-1.9,5.4c-21.7,0-43.4,0-65.1,0
		c0-9.4,0-18.8,0-28.1c0-3.5,0-7,0-10.5c1.2,0,1.8-0.5,1.8-1.8c5.9,0,11.7,0,17.6,0c0.9,1.9,2.1,3.6,1.9,6.1
		c-0.4,3.7-0.1,7.4-0.1,11.1c0,1.2,0.1,2.3,1.8,2.2c7.6,0,15.3,0,22.9,0c1.1-0.2,2.3,0.5,3.5-0.9c0-3.9,0.3-8.1-0.1-12.3
		c-0.2-2.5,0.9-4.2,1.9-6.1C286.8,21.1,291.5,21.1,296.2,21.1z"/>
	<path class="st0" d="M254,17.6c0-5.3,0-10.5,0-15.8c1.2,0,1.8-0.5,1.8-1.8c7,0,14.1,0,21.1,0c0,1.2,0.5,1.8,1.8,1.8
		c0,5.3,0,10.5,0,15.8c-1.8-0.1-2.4,2-4.5,1.9c-5.2-0.3-10.4-0.3-15.6,0C256.4,19.6,255.8,17.5,254,17.6z"/>
	<path class="st1" d="M254,17.6c1.8-0.1,2.4,2,4.5,1.9c5.2-0.3,10.4-0.3,15.6,0c2.1,0.1,2.7-2,4.5-1.9c0,1,0,2.1,0,3.5
		c1.5,0,2.5,0,3.5,0c-0.9,1.9-2.1,3.6-1.9,6.1c0.4,4.2,0.1,8.5,0.1,12.3c-1.2,1.4-2.5,0.7-3.5,0.9c0-5.8,0-11.5,0-17.6
		c-4.3,0-8.1-0.1-11.9,0c-3.7,0.1-7.4-0.4-11,0.4c0,6.1,0,11.6,0,17.2c-1.6,0.1-1.8-1-1.8-2.2c0-3.7-0.3-7.4,0.1-11.1
		c0.3-2.5-0.9-4.2-1.9-6.1C252.4,20.7,253.6,19.5,254,17.6z"/>
	<path class="st1" d="M232.9,21.1c0,1.2-0.5,1.8-1.8,1.8C231.1,21.6,231.6,21.1,232.9,21.1z"/>
	<path class="st1" d="M278.6,1.8c-1.2,0-1.8-0.5-1.8-1.8C278.1,0,278.7,0.5,278.6,1.8z"/>
	<path class="st1" d="M255.8,0c0,1.2-0.5,1.8-1.8,1.8C253.9,0.5,254.5,0,255.8,0z"/>
	<path class="st2" d="M474,59.8c1.2,0,1.8,0.5,1.8,1.8c0,13.4,0,26.8,0,39.6c1.2,1.2,1.9,1.8,2.8,2.8c5.2,0,10.7,0,16.2,0
		c0,6.6,0,12.9,0,19.4c-6.5,0-12.6,0-19,0c0.3,13-0.3,25.7,0.4,38.4c7.3,0,14.1,0,20.8,0c0,5.7,0,11.4,0,17.2c0,1.2-0.1,2.3-1.8,2.2
		c-14.1,0-28.2,0-42.2,0c0-5.7,0-11.5,0-17.6c-7.9,0-15.4,0-22.9,0c0-1.2-0.5-1.8-1.8-1.8c0-6.3,0-12.6,0-19.3c-6.7,0-13.1,0-19.4,0
		c0-1.2-0.5-1.8-1.8-1.8c0-5.7,0-11.4,0-17.6c-7.3,0-14.2,0-21.1,0c0-6.9,0-13.9,0-21.1c-15.2,0-29.8,0-44.4,0
		c-0.3,0-0.5,0.1-0.8,0.3c-0.2,0.2-0.4,0.4-0.6,0.6c0,6.7,0,13.5,0,20.2c-2.7-0.8-4.4,2.3-7.2,1.8c-2.6-0.4-5.2-0.1-7.9-0.1
		c-8.5,0-17,0-25.4,0c-15.3,0-30.5,0-45.8,0c-7.5,0-14.9,0-22.9,0c0,5.5,0,10.7,0,15.8c0,7,0,14.1,0,21.1c-6.9,0-13.9,0-21.1,0
		c0,3.8,0.1,6.9,0,10.1c-0.1,3.1,0.6,6.3-0.4,9.2c-7.2,0-13.9,0-20.7,0c-1.7-0.1-1.8,1-1.8,2.2c0,5.5,0,10.9,0,16.4
		c-1.4,0.7-1.7,2.6-3.5,2.5c-5.3,0-10.6,0-15.8,0c-0.6,0-1.2,0-1.8,0c-2.4-2.9-2.9-7.1-1.5-9.5c2.6-4,0.6-7.6,1.7-11.6
		c-8.2,0-15.7,0-23.1,0c0-6.4,0-12.9,0-19.3c7.5,0,15.1,0,22.9,0c-0.1-13.3,0.2-26-0.2-38.7c-8.1,0-15.4,0-22.7,0
		c0-1.2-0.5-1.8-1.8-1.8c0-5.9,0-11.7,0-17.6c1.2,0,1.8-0.5,1.8-1.8c7.5,0,15,0,22.9,0c0-13.8,0-27.1,0-40.4c5.7,0,11.4,0,17.2,0
		c1.2,0,2.3-0.1,2.2-1.8c1.2,0,1.8,0.5,1.8,1.8c0,6.9,0,13.9,0,21.1c14.6,0,28.6,0,42.6,0c0.3,0,0.5-0.1,0.8-0.3
		c0.2-0.2,0.4-0.4,0.6-0.6c0-6.7,0-13.5,0-20.2c21.7,0,43.4,0,65.1,0c1.2,0,2.3,0,3.5,0c0,6.9,0,13.9,0,21.1c13.4,0,26.3,0,39.1,0
		c0.3,0,0.5-0.1,0.8-0.3c0.2-0.2,0.4-0.4,0.6-0.6c0-6.7,0-13.5,0-20.2c22.9,0,45.8,0,68.7,0c0,6.9,0,13.9,0,21.1
		c14.6,0,28.6,0,42.6,0c0.3,0,0.5-0.1,0.8-0.3c0.2-0.2,0.4-0.4,0.6-0.6c0-6.7,0-13.5,0-20.2c6.3,0,12.6,0,18.9,0
		C473,61.5,474.2,61.4,474,59.8z M297.8,104c-14.4,0-28.1,0-42.1,0c0,3.2-0.1,6,0,8.9c0.1,2.8-0.5,5.7,0.4,8.1c14.2,0,27.9,0,41.7,0
		C297.8,115.3,297.8,109.8,297.8,104z"/>
	<path class="st3" d="M299.8,61.5c0-12.7,0-25.5,0-38.7c13.8,0,27.1,0,40.5,0c0,12.9,0,25.8,0,38.7
		C326.7,61.5,313.3,61.5,299.8,61.5z"/>
	<path class="st3" d="M363.1,40.4c0-6.3,0-12.6,0-19.3c7.9,0,15.4,0,22.9,0c0,6.3,0,12.6,0,19.3C378.1,40.4,370.6,40.4,363.1,40.4z"
		/>
	<path class="st0" d="M408.9,61.5c0.6,0,1.2,0,1.8,0c4.7,0,9.4,0,14.1,0c9.4,0,18.8,0,28.2,0c0,6.7,0,13.5,0,20.2
		c-0.2,0.2-0.4,0.5-0.6,0.6c-0.2,0.1-0.5,0.3-0.8,0.3c-14,0-28,0-42.6,0C408.9,75.4,408.9,68.5,408.9,61.5z"/>
	<path class="st3" d="M254,40.4c0-5.6,0-11.1,0-17.2c3.6-0.8,7.3-0.3,11-0.4c3.8-0.1,7.5,0,11.9,0c0,6,0,11.8,0,17.6
		C269.2,40.4,261.6,40.4,254,40.4z"/>
	<path class="st0" d="M231.1,61.5c0,6.7,0,13.5,0,20.2c-0.2,0.2-0.4,0.5-0.6,0.6c-0.2,0.1-0.5,0.3-0.8,0.3c-14,0-28,0-42.6,0
		c0-7.2,0-14.2,0-21.1c0.6,0,1.2,0,1.8,0c8.2,0,16.4,0,24.6,0C219.4,61.5,225.2,61.5,231.1,61.5z"/>
	<path class="st1" d="M213.5,640c-11.7,0-23.5,0-35.2,0s-23.5,0-35.2,0c0-2.9,0-5.9,0-8.8c0-2.3,0-4.7,0-7c0-0.6,0-1.2,0-1.8
		c14.1,0,28.2,0,42.2,0c8.2,0,16.4,0,24.6,0c72.8,0,145.5,0,218.3,0c8.2,0,16.4,0,24.6,0c14.7,0,29.3,0,44,0c0,2.9,0,5.9,0,8.8
		c0,2.2,0,4.5,0,6.7c0,1.2-0.2,2.2-1.8,2.1c-11.7,0-23.5,0-35.2,0c-11.7,0-23.5,0-35.2,0c-11.7,0-23.5,0-35.2,0
		c-11.7,0-23.5,0-35.2,0c-11.7,0-23.5,0-35.2,0c-11.7,0-23.5,0-35.2,0c-11.7,0-23.5,0-35.2,0C237,640,225.2,640,213.5,640z"/>
	<path class="st0" d="M143.1,102c0-11.1,0-22.3,0-33.4c0-2.3,0-4.7,0-7c7.6,0,15.3,0,22.9,0c0,13.3,0,26.6,0,40.4
		C158.1,102,150.6,102,143.1,102z"/>
	<path class="st0" d="M185.3,59.8c0.1,1.7-1,1.8-2.2,1.8c-5.7,0-11.4,0-17.2,0c0-6.1,0-12.3,0-18.9c3-1,6.2-0.3,9.2-0.4
		c3.2-0.1,6.4,0,10.1,0C185.3,48.2,185.3,54,185.3,59.8z"/>
	<path class="st0" d="M496.9,161.8c-6.7,0-13.5,0-20.8,0c-0.6-12.7-0.1-25.4-0.4-38.4c6.5,0,12.5,0,19,0c0-6.6,0-12.8,0-19.4
		c-5.5,0-11,0-16.2,0c-0.9-0.9-1.6-1.6-2.8-2.8c0-12.8,0-26.2,0-39.6c0.6,0,1.2,0,1.8,0c5.9,0,11.7,0,17.6,0
		c1.5-0.1,1.8,0.9,1.8,2.1c0,1.7,0,3.3,0,5c0,10.5,0,21.1,0,31.6c0,1.2,0.5,1.8,1.8,1.8c6.3,0,12.6,0,18.9,0c1.2,0,2.3,0.1,2.2,1.8
		c0,6.4,0,12.7,0,19.3c-4.3,0-8.1-0.1-11.9,0c-3.7,0.1-7.4-0.4-11,0.4c0,5.5,0,10.4,0,15.4c0,7,0,14.1,0,21.1
		C496.9,160.6,496.9,161.2,496.9,161.8z"/>
	<path class="st0" d="M474,59.8c0.1,1.7-1,1.8-2.2,1.8c-6.3,0-12.6,0-18.9,0c0-6.1,0-12.3,0-19.1c3.3-0.1,6.7-0.2,10.1-0.2
		c3.5,0,6.9,0,11,0C474,48.2,474,54,474,59.8z"/>
	<path class="st0" d="M188.9,181.1c6.7,0,13.5,0,20.7,0c1-3,0.3-6.1,0.4-9.2c0.1-3.2,0-6.4,0-10.1c7.2,0,14.2,0,21.1,0
		c0,6.3,0,12.6,0,19.3c7.9,0,15.4,0,22.9,0c0,7,0,14.1,0,21.1c-7.5,0-15,0-22.9,0c0,7.3,0,14.2,0,21.1c0,13.3,0,26.6,0,40.4
		c7.9,0,15.4,0,22.9,0c0,6.3,0,12.6,0,19.3c8.5,0,16.6,0,24.6,0c0,5.8,0,11.6,0,17.3c26.3,1.1,77.1,0.7,84.5-0.6
		c0-5.6,0-11.1,0-16.7c7.6,0,15.3,0,22.9,0c0,5.7,0,11.5,0,17.6c7.9,0,15.4,0,22.9,0c0,6.4,0,12.9,0,19.3c-7.5,0-15,0-22.9,0
		c0,7.3,0,14.2,0,21.1c-7.5,0-15.1,0-22.9,0c0-4.1,0-7.5,0-11c0-3.4-0.1-6.8-0.2-9.8c-28.5,0-56.3,0-84.3,0c0,3.7,0,7.2,0,10.7
		c0,3.4-0.1,6.8-0.2,10.1c-8.6,0-16.5,0-24.4,0c0-7,0-14.1,0-21.1c0-6.3,0-12.7,0-19.6c-8,0-15.4,0-23.1,0c0-6,0-11.5,0-17.4
		c-13.6,0-27,0-40.3,0c0.1-1.8-1.9-2.5-1.9-4.5c0.2-11.3,0.1-22.6,0.1-34.2c6.7,0,12.8,0,18.9,0c1.2,0,2.4,0,2.3-1.8
		c0-13.3,0-26.6,0-40.4c-7.3,0-14.2,0-21.1,0C188.9,195.2,188.9,188.1,188.9,181.1z"/>
	<path class="st0" d="M407.1,140.7c1.2,0,1.8,0.5,1.8,1.8c0,5.7,0,11.4,0,16.7c1,1,1.6,1.6,2.6,2.6c5.3,0,11,0,16.7,0
		c1.2,0,1.8,0.5,1.8,1.8c0,5.7,0,11.5,0,17.6c7.9,0,15.4,0,22.9,0c0,7,0,14.1,0,21.1c-7.5,0-15,0-22.9,0c0,7.3,0,14.2,0,21.1
		c0,6.3,0,12.6,0,19.3c7.9,0,15.4,0,22.9,0c0,7,0,14.1,0,21.1c-7.6,0-15.3,0-22.9,0c-7,0-14.1,0-21.1,0c0-7,0-14.1,0-21.1
		c0-6.4,0-12.9,0-19.3c0-6.9,0-13.8,0-21.1c-7.9,0-15.4,0-22.9,0c0-7,0-14.1,0-21.1c7.5,0,15.1,0,22.9,0c0-3.8,0.1-6.9,0-10.1
		c-0.1-3.1,0.6-6.3-0.4-9.2c-7.8,0-15.1,0-22.4,0c0-7,0-14.1,0-21.1C393.1,140.7,400.1,140.7,407.1,140.7z"/>
	<path class="st0" d="M495.1,181.1c1.7,0.1,1.8-1,1.8-2.2c0-5.7,0-11.4,0-17.2c0.6,0,1.2,0,1.8,0c6.9,0,13.8,0,21.1,0
		c0,4.4,0,8.3,0,12.3c0,9.4,0,18.8,0,28.1c-7,0-14.1,0-21.1,0c-1.2,0-1.8,0.5-1.8,1.8c0,6.4,0,12.9,0,19.3c-6.9,0-13.9,0-20.9,0
		c-0.6,6.8,0.3,13.2-0.5,19.3c-7.9,0-15.2,0-22.6,0c0-6.4,0-12.9,0-19.3c0-7,0-14.1,0-21.1c13.9,0,27.8,0,42.2,0
		C495.1,194.9,495.1,188,495.1,181.1z"/>
	<path class="st1" d="M188.9,181.1c0,7,0,14.1,0,21.1c-2.4,0-1.7,1.9-1.7,3.1c0,10.2-0.1,20.5,0,30.7c0,2.2-0.9,4.6,0.8,6.6
		c7.4,0,14.7,0,22.1,0c0.1,1.7-1.1,1.8-2.3,1.8c-6.1,0-12.2,0-18.9,0c0,11.6,0.1,22.9-0.1,34.2c0,2.1,2,2.8,1.9,4.5
		c-1.1,0.2-2.3-0.5-3.8,1.3c0,5,0,10.6,0,16.5c-7.2,0-13.8,0-20.9,0c0,6.5,0,12.8,0,19.2c0,7,0,14.1,0,21.1c-0.6,0-1.2,0-1.8,0
		c-0.2-0.5-0.3-1.3-0.6-1.4c-1.1-0.2-1.2,0.5-1.2,1.4c-6.5,0-12.9,0-19.4,0c0-0.6,0-1.2,0-1.8c0-8.2,0-16.4,0-24.6
		c0-4.7,0-9.4,0-14.1c6.5,0,12.9,0,19.4,0c0.2,0.5,0.3,1.3,0.6,1.4c1.1,0.2,1.2-0.5,1.2-1.4c0-5.8,0-11.5,0-17.8
		c7.4,0,14.2,0,20.9,0c0-13,0-25.5,0-38.5c-6.5,0-12.8,0-19.2,0c0.2-1.1-0.5-2.3,0.9-3.5c2.8,0,6,0,9.2,0c3.1,0,6.2-0.2,9.2-0.2
		c0-10.9,0-21.1,0-31.3c0-2.6,0-5.1-1.8-7.1c1.8,0.1,2.1-1.8,3.5-2.5c0-5.4,0-10.9,0-16.4C187.1,182.1,187.2,181,188.9,181.1z"/>
	<path class="st0" d="M183.6,202.2c1.8,2.1,1.8,4.6,1.8,7.1c-0.1,10.2,0,20.4,0,31.3c-3,0.1-6.1,0.2-9.2,0.2c-3.2,0-6.4,0-9.2,0
		c-1.5,1.2-0.7,2.4-0.9,3.5c0,5.9,0,11.7,0,17.6c-1.2,0-1.8,0.5-1.8,1.8c-6.5,0-12.9,0-19.4,0c0-1.2-0.5-1.8-1.8-1.8
		c0-5.9,0-11.7,0-17.6c0-7,0-14.1,0-21.1c7,0,14.1,0,21.1,0c1.1-0.2,2.3,0.5,3.5-0.9c0-6.5,0-13.3,0-20.2
		C173,202.2,178.3,202.2,183.6,202.2z"/>
	<path class="st0" d="M143.1,161.8c0,6.4,0,12.9,0,19.3c0,14.1,0,28.1,0,42.2c-6.5,0-12.9,0-19.4,0c0-1.2-0.5-1.8-1.8-1.8
		c0-4.1,0-8.2,0-12.3c0-11.7,0-23.4,0-35.2c0-3.5,0-7,0-10.5c1.2,0,1.8-0.5,1.8-1.8C130.2,161.8,136.6,161.8,143.1,161.8z"/>
	<path class="st0" d="M231.1,161.8c0-7,0-14.1,0-21.1c6.9,0,13.7,0,20.2,0c1-1,1.6-1.6,2.6-2.6c0-4.1,0-8.6,0-13.2
		c15.3,0,30.5,0,45.8,0c0,4.7,0,9.4,0,14.1c-2.1,1.7-4.6,1.8-7.1,1.8c-12.7-0.1-25.5,0-38.7,0c0,7.3,0,14.2,0,21.1
		C246.4,161.8,238.7,161.8,231.1,161.8z"/>
	<path class="st4" d="M340.2,123.1c0-6.7,0-13.5,0-20.2c0.2-0.2,0.4-0.5,0.6-0.6c0.2-0.1,0.5-0.3,0.8-0.3c14.6,0,29.2,0,44.4,0
		c0,7.2,0,14.2,0,21.1C370.8,123.1,355.5,123.1,340.2,123.1z"/>
	<path class="st4" d="M143.1,223.3c0-14.1,0-28.1,0-42.2c7.4,0,14.9,0,23.1,0c-1.1,4.1,0.8,7.6-1.7,11.6c-1.5,2.3-0.9,6.6,1.5,9.5
		c-1.7-0.1-1.8,1-1.8,2.2c0,6.3,0,12.6,0,18.9C157.2,223.3,150.1,223.3,143.1,223.3z"/>
	<path class="st4" d="M495.1,181.1c0,6.9,0,13.8,0,21.1c-14.4,0-28.3,0-42.2,0c0-7,0-14.1,0-21.1C467,181.1,481.1,181.1,495.1,181.1
		z"/>
	<path class="st0" d="M143.1,123.1c7.3,0,14.6,0,22.7,0c0.4,12.7,0.1,25.4,0.2,38.7c-7.8,0-15.4,0-22.9,0c0-7.6,0-15.2,0-22.9
		C143.1,133.6,143.1,128.3,143.1,123.1z"/>
	<path class="st0" d="M299.8,61.5c13.5,0,27,0,40.5,0c0,6.7,0,13.5,0,20.2c-0.2,0.2-0.4,0.5-0.6,0.6c-0.2,0.1-0.5,0.3-0.8,0.3
		c-12.8,0-25.7,0-39.1,0C299.8,75.4,299.8,68.5,299.8,61.5z"/>
	<path class="st4" d="M297.8,104c0,5.8,0,11.3,0,17c-13.8,0-27.5,0-41.7,0c-0.9-2.4-0.3-5.3-0.4-8.1c-0.1-2.9,0-5.8,0-8.9
		C269.7,104,283.4,104,297.8,104z"/>
	<path class="st4" d="M299.8,138.9c0-4.7,0-9.4,0-14.1c8.5,0,17,0,25.4,0c2.6,0,5.3-0.3,7.9,0.1c2.8,0.4,4.4-2.7,7.2-1.8
		c0,5.9,0,11.7,0,17.6c-11.1,0-22.2,0-33.3,0C304.3,140.7,301.9,140.7,299.8,138.9z"/>
	<path class="st4" d="M452.9,181.1c-7.5,0-15,0-22.9,0c0-6.1,0-11.9,0-17.6c7.5,0,15,0,22.9,0C452.9,169.6,452.9,175.4,452.9,181.1z
		"/>
	<path class="st0" d="M122,103.7c6.5,0,12.9,0,19.4,0c0,5.9,0,11.7,0,17.6c0,0.6,0,1.2,0,1.8c-6.3,0-12.6,0-19.4,0
		C122,116.3,122,110,122,103.7z"/>
	<path class="st4" d="M407.1,140.7c-7,0-14.1,0-21.1,0c0-5.9,0-11.7,0-17.6c6.9,0,13.8,0,21.1,0
		C407.1,129.2,407.1,134.9,407.1,140.7z"/>
	<path class="st4" d="M428.3,161.8c-5.7,0-11.4,0-16.7,0c-1-1-1.6-1.6-2.6-2.6c0-5.3,0-11,0-16.7c6.3,0,12.6,0,19.4,0
		C428.3,149.1,428.3,155.4,428.3,161.8z"/>
	<path class="st4" d="M254,124.8c0,4.5,0,9.1,0,13.2c-1.1,1.1-1.7,1.7-2.6,2.6c-6.5,0-13.4,0-20.2,0c0-5.1,0-10.3,0-15.8
		C239,124.8,246.5,124.8,254,124.8z"/>
	<path class="st1" d="M164.2,223.3c0-6.3,0-12.6,0-18.9c0-1.2,0.1-2.3,1.8-2.2c0.6,0,1.2,0,1.8,0c0,6.8,0,13.7,0,20.2
		C166.5,223.8,165.3,223.1,164.2,223.3z"/>
	<path class="st0" d="M141.3,622.4c-11.1,0-22.3,0-33.4,0c-2.6,0-5.3,0-8.6,0c-0.1-3.3-0.2-6.7-0.2-10.1c0-3.5,0-6.9,0-11
		c-8.4,0-16.5,0-24.6,0c0-1.8,0-3.5,0-5.3c0-4.7,0-9.4,0-14.1c7.6,0,15.3,0,22.9,0c1.2,0,1.8-0.5,1.8-1.8c0-6.4,0-12.9,0-19.3
		c2.9,0,5.9,0,8.8,0c4.1,0,8.2,0,12.3,0c0.6,0,1.2,0,1.8,0c0,13.4,0,26.8,0,40.4c4,0,7.5,0,11,0c3.4,0,6.8,0.1,10.1,0.2
		c0,7.4,0,14.2,0,20.9C142.5,622.4,141.9,622.4,141.3,622.4z"/>
	<path class="st5" d="M428.3,622.4c-72.8,0-145.5,0-218.3,0c0-13.5,0-27,0-40.4c6.9,0,13.9,0,21.1,0c0-20.9,0-41.2,0-61.5
		c7.6,0,15.3,0,22.9,0c8.1,0,16.2,0,24.4,0c0.6,6.8-0.3,13.2,0.5,19.1c28.4,0,56.1,0,84.2,0c0-3.5,0-6.6,0-9.8
		c0-3.1,0.2-6.2,0.2-9.2c8,0,15.3,0,22.6,0c6.9,0,13.9,0,20.2,0c1.2,1.2,1.8,1.8,2.6,2.6c0,19.1,0,38.3,0,57.6
		c0,0.3,0.1,0.5,0.3,0.7c0.2,0.2,0.4,0.4,0.6,0.6c6.7,0,13.5,0,20.2,0c0,11.1,0,22.2,0,33.3C430.1,617.8,430,620.3,428.3,622.4z"/>
	<path class="st5" d="M496.9,622.4c-14.7,0-29.3,0-44,0c0-13.3,0-26.6,0-40.4c-7.9,0-15.4,0-22.9,0c0-20.5,0-41,0-61.5
		c15.1,0,30.2,0,45.8,0c0-7.3,0-14.2,0-21.1c7,0,14.1,0,21.1,0c0,20.3,0,40.7,0,61.5c7.9,0,15.4,0,22.9,0c0,13.4,0,26.8,0,40.4
		c-4.3,0-8.1-0.1-11.9,0c-3.7,0.1-7.4-0.4-11,0.4C496.9,608.9,496.9,615.6,496.9,622.4z"/>
	<path class="st5" d="M143.1,622.4c0-6.7,0-13.5,0-20.9c-3.3-0.1-6.7-0.2-10.1-0.2c-3.5,0-6.9,0-11,0c0-13.7,0-27.1,0-40.4
		c6.9,0,13.9,0,21.1,0c0-20.9,0-41.2,0-61.5c7.6,0,15.3,0,22.9,0c0,6.9,0,13.8,0,21.1c15,0,29.5,0,44,0c0,20.5,0,41,0,61.5
		c-7.5,0-15,0-22.9,0c0,11.4,0,22.4,0,33.3c0,2.6-0.1,5-1.8,7.1C171.3,622.4,157.2,622.4,143.1,622.4z"/>
	<path class="st6" d="M185.3,622.4c1.7-2.1,1.8-4.5,1.8-7.1c-0.1-11,0-21.9,0-33.3c7.9,0,15.4,0,22.9,0c0,13.5,0,27,0,40.4
		C201.8,622.4,193.6,622.4,185.3,622.4z"/>
	<path class="st6" d="M430,581.9c7.5,0,15,0,22.9,0c0,13.8,0,27.1,0,40.4c-8.2,0-16.4,0-24.6,0c1.8-2.1,1.8-4.6,1.8-7.2
		C430,604.1,430,593,430,581.9z"/>
	<path class="st0" d="M496.9,622.4c0-6.7,0-13.5,0-20.7c3.6-0.8,7.3-0.3,11-0.4c3.8-0.1,7.5,0,11.9,0c0-13.7,0-27.1,0-40.4
		c3.5,0,7,0,10.6,0c4.1,0,8.2,0,12.3,0c0,6.9,0,13.8,0,21.1c7.9,0,15.4,0,22.9,0c0,4.7,0,9.4,0,14.1c0,1.8,0,3.5,0,5.3
		c-7,0-14.1,0-21.1,0c-1.2,0-1.8,0.5-1.8,1.8c0,6.3,0,12.6,0,19.3c-4.4,0-8.3,0-12.3,0C519.2,622.4,508.1,622.4,496.9,622.4z"/>
	<path class="st7" d="M254,341.1c7.9,0,15.8,0,24.4,0c0.1-3.3,0.2-6.7,0.2-10.1c0-3.5,0-6.9,0-10.7c28,0,55.8,0,84.3,0
		c0.1,3,0.2,6.4,0.2,9.8c0,3.5,0,6.9,0,11c7.8,0,15.3,0,22.9,0c0,6.4,0,12.9,0,19.3c-15.3,0-30.5,0-45.8,0c0-5.8,0-11.5,0-16.7
		c-1.2-1.2-1.8-1.8-2.7-2.7c-12.4,0.3-25.1-0.3-37.8,0.4c0,6.8,0,12.9,0,19c-15.3,0-30.5,0-45.8,0C254,354,254,347.5,254,341.1z"/>
	<path class="st5" d="M166,341.1c0-7,0-14.1,0-21.1c29.3,0,58.7,0,88,0c0,7,0,14.1,0,21.1c-7.5,0-15.1,0-22.7,0
		c-0.4,6.8,0.3,13.2-0.4,19.3c-15,0-29.4,0-43.7,0c0-6.3,0-12.6,0-19.3C179.8,341.1,172.9,341.1,166,341.1z"/>
	<path class="st7" d="M254,320c-29.3,0-58.7,0-88,0c0-6.3,0-12.6,0-19.2c7.1,0,13.7,0,20.9,0c0-5.9,0-11.5,0-16.5
		c1.5-1.8,2.7-1,3.8-1.3c13.3,0,26.7,0,40.3,0c0,5.9,0,11.3,0,17.4c7.7,0,15.1,0,23.1,0C254,307.3,254,313.6,254,320z"/>
	<path class="st8" d="M408.9,320c0-6.4,0-12.9,0-19.3c7,0,14.1,0,21.1,0c15.3,0,30.5,0,45.8,0c7,0,14.1,0,21.1,0
		c0,6.4,0,12.9,0,19.3c-6.9,0-13.9,0-21.1,0c0,4,0,7.5,0,11c0,3.4-0.1,6.8-0.2,10.1c-8,0-15.4,0-22.7,0c0-6.9,0-13.8,0-21.1
		C437.9,320,423.4,320,408.9,320z"/>
	<path class="st9" d="M363.1,283.1c0,5.6,0,11.1,0,16.7c-7.4,1.3-58.2,1.7-84.5,0.6c0-5.7,0-11.5,0-17.3
		C306.8,283.1,335,283.1,363.1,283.1z"/>
	<path class="st10" d="M254,202.2c0-7,0-14.1,0-21.1c8.2,0,16.4,0,24.6,0c0,7,0,14.1,0,21.1c0,7,0,14.1,0,21.1
		c-6.4,0-12.8,0.2-19.2-0.1c-2.3-0.1-3.5,1.6-5.4,1.9C254,217.4,254,209.8,254,202.2z"/>
	<path class="st9" d="M210,242.6c-7.3,0-14.6,0-22.1,0c-1.7-2-0.8-4.4-0.8-6.6c-0.1-10.2-0.1-20.5,0-30.7c0-1.3-0.7-3.1,1.7-3.1
		c6.9,0,13.8,0,21.1,0C210,216,210,229.3,210,242.6z"/>
	<path class="st9" d="M254,263.7c-7.5,0-15,0-22.9,0c0-13.8,0-27.1,0-40.4c5.8,0,11.7,0.2,17.5-0.1c2.3-0.1,3.5,1.6,5.4,1.9
		c0,4.7,0,9.4,0,14.1c-2.9,0.3-2.1,3.1-1.6,3.8c2.2,2.8,1.6,5.8,1.6,8.8C254,255.7,254,259.7,254,263.7z"/>
	<path class="st11" d="M254,225c-1.9-0.3-3.1-2-5.4-1.9c-5.8,0.3-11.7,0.1-17.5,0.1c0-6.9,0-13.8,0-21.1c7.9,0,15.4,0,22.9,0
		C254,209.8,254,217.4,254,225z"/>
	<path class="st5" d="M386,341.1c0-6.9,0-13.8,0-21.1c7.9,0,15.4,0,22.9,0c0,7,0,14.1,0,21.1C401.3,341.1,393.6,341.1,386,341.1z"/>
	<path class="st9" d="M278.6,283.1c-8.1,0-16.1,0-24.6,0c0-6.7,0-13,0-19.3c8.1,0,16.1,0,24.6,0
		C278.6,270.4,278.6,276.8,278.6,283.1z"/>
	<path class="st9" d="M386,283.1c-7.6,0-15.3,0-22.9,0c0-6.3,0-12.6,0-19.3c7.9,0,15.4,0,22.9,0C386,270.2,386,276.6,386,283.1z"/>
	<path class="st9" d="M231.1,161.8c7.6,0,15.3,0,22.9,0c0,6.4,0,12.9,0,19.3c-7.5,0-15,0-22.9,0
		C231.1,174.4,231.1,168.1,231.1,161.8z"/>
	<path class="st8" d="M408.9,300.6c-7.5,0-15,0-22.9,0c0-6.1,0-11.9,0-17.6c7.6,0,15.3,0,22.9,0
		C408.9,288.9,408.9,294.8,408.9,300.6z"/>
	<path class="st12" d="M496.9,300.6c-7,0-14.1,0-21.1,0c0-12.1,0-24.3,0-36.9c-7.9,0-15.4,0-22.9,0c0-7,0-14.1,0-21.1
		c7.3,0,14.6,0,22.6,0c0.8-6.2-0.1-12.5,0.5-19.3c7,0,14,0,20.9,0c0,6.4,0,12.9,0,19.3c0,7.5,0,15,0,23.1c7.4,0,14.3,0,21.1,0
		c0,4.4,0.3,8.2-0.1,11.9c-0.3,2.3,1.6,3.5,1.9,5.4c-7.5,0-15,0-22.9,0C496.9,289.2,496.9,294.9,496.9,300.6z"/>
	<path class="st13" d="M386,140.7c0,7,0,14.1,0,21.1c-15.3,0-30.5,0-45.8,0c0-7,0-14.1,0-21.1C355.5,140.7,370.8,140.7,386,140.7z"
		/>
	<path class="st10" d="M386,181.1c0,7,0,14.1,0,21.1c0,7,0,14.1,0,21.1c-7.6,0-15.3,0-22.9,0c0-7,0-14.1,0-21.1c0-7,0-14.1,0-21.1
		C370.8,181.1,378.4,181.1,386,181.1z"/>
	<path class="st12" d="M452.9,202.2c0,7,0,14.1,0,21.1c-7.6,0-15.3,0-22.9,0c0-6.9,0-13.8,0-21.1
		C437.9,202.2,445.4,202.2,452.9,202.2z"/>
	<path class="st11" d="M386,223.3c0-7,0-14.1,0-21.1c7.5,0,15,0,22.9,0c0,7.3,0,14.2,0,21.1C401.3,223.3,393.6,223.3,386,223.3z"/>
	<path class="st9" d="M408.9,242.6c0,7,0,14.1,0,21.1c-7.6,0-15.3,0-22.9,0c0-7,0-14.1,0-21.1C393.6,242.6,401.3,242.6,408.9,242.6z
		"/>
	<path class="st13" d="M408.9,242.6c-7.6,0-15.3,0-22.9,0c0-6.4,0-12.9,0-19.3c7.6,0,15.3,0,22.9,0
		C408.9,229.7,408.9,236.2,408.9,242.6z"/>
	<path class="st8" d="M430,223.3c7.6,0,15.3,0,22.9,0c0,6.4,0,12.9,0,19.3c-7.5,0-15,0-22.9,0C430,235.9,430,229.6,430,223.3z"/>
	<path class="st13" d="M386,161.8c7.3,0,14.6,0,22.4,0c1,3,0.3,6.1,0.4,9.2c0.1,3.2,0,6.4,0,10.1c-7.8,0-15.3,0-22.9,0
		C386,174.6,386,168.2,386,161.8z"/>
	<path class="st12" d="M430,263.7c7.6,0,15.3,0,22.9,0c0,6.3,0,12.6,0,19.3c-7.9,0-15.4,0-22.9,0C430,276.6,430,270.2,430,263.7z"/>
	<path class="st8" d="M430,263.7c0,6.4,0,12.9,0,19.3c-7,0-14.1,0-21.1,0c0-6.4,0-12.9,0-19.3C415.9,263.7,423,263.7,430,263.7z"/>
	<path class="st12" d="M519.8,202.2c0,0.6,0,1.2,0,1.8c0,6.4,0,12.9,0,19.3c-7.6,0-15.3,0-22.9,0c0-6.4,0-12.9,0-19.3
		c1.2,0,1.8-0.5,1.8-1.8C505.7,202.2,512.7,202.2,519.8,202.2z"/>
	<path class="st4" d="M144.9,263.7c6.5,0,12.9,0,19.4,0c1.2,0,1.8-0.5,1.8-1.8c0-5.9,0-11.7,0-17.6c6.3,0,12.7,0,19.2,0
		c0,13,0,25.4,0,38.5c-6.7,0-13.6,0-20.9,0c0,6.3,0,12.1,0,17.8c-0.6,0-1.2,0-1.8,0c-6.5,0-12.9,0-19.4,0c0-11.7,0-23.4,0-35.2
		C144.3,265.5,144.9,264.9,144.9,263.7z"/>
	<path class="st0" d="M99.1,381.5c0-5.8,0.1-11.6,0-17.5c0-2.2,0.3-4,4-5.4c1,0,3.5,0,6,0c0.9-6.7,7.6-4.6,11.1-7.8c0-2.9,0-6,0-9.7
		c5.7,0,11.2-0.2,16.6,0.1c2.5,0.2,4.3-0.9,6.3-1.9c0,0.6,0,1.2,0,1.8c0,6.4,0,12.9,0,19.3c-6.9,0-13.8,0-21.1,0
		c0,7.3,0,14.2,0,21.1C114.3,381.5,106.7,381.5,99.1,381.5z"/>
	<path class="st8" d="M143.1,360.4c0-6.4,0-12.9,0-19.3c6.5,0,12.9,0,19.4,0c0.6,0,1.2,0,1.8,0c0.6,0,1.2,0,1.8,0
		c0,6.4,0,12.9,0,19.3C158.3,360.4,150.7,360.4,143.1,360.4z"/>
	<path class="st0" d="M164.2,341.1c-0.6,0-1.2,0-1.8,0c-0.1-0.9,0.1-1.6,1.2-1.4C163.9,339.8,164,340.6,164.2,341.1z"/>
	<path class="st0" d="M162.5,300.6c0.6,0,1.2,0,1.8,0c0.1,0.9-0.1,1.6-1.2,1.4C162.8,302,162.6,301.1,162.5,300.6z"/>
	<path class="st1" d="M141.3,263.7c0-1.2,0.5-1.8,1.8-1.8c1.2,0,1.8,0.5,1.8,1.8c0,1.2-0.5,1.8-1.8,1.8
		C141.9,265.5,141.3,264.9,141.3,263.7z"/>
	<path class="st1" d="M166,262c0,1.2-0.5,1.8-1.8,1.8C164.2,262.5,164.8,261.9,166,262z"/>
	<path class="st1" d="M122,163.5c0-1.2,0.5-1.8,1.8-1.8C123.8,163,123.2,163.6,122,163.5z"/>
	<path class="st1" d="M123.7,223.3c-1.2,0-1.8-0.5-1.8-1.8C123.2,221.5,123.8,222.1,123.7,223.3z"/>
	<path class="st13" d="M254,161.8c0-6.9,0-13.8,0-21.1c13.2,0,25.9,0,38.7,0c2.6,0,5-0.1,7.1-1.8c0,7.6,0,15.2,0,22.9
		C284.5,161.8,269.2,161.8,254,161.8z"/>
	<path class="st0" d="M386,140.7c-15.3,0-30.5,0-45.8,0c0-5.9,0-11.7,0-17.6c15.3,0,30.5,0,45.8,0C386,128.9,386,134.8,386,140.7z"
		/>
	<path class="st0" d="M299.8,161.8c0-7.6,0-15.2,0-22.9c2.1,1.8,4.6,1.8,7.2,1.8c11.1-0.1,22.2,0,33.3,0c0,7,0,14.1,0,21.1
		C326.7,161.8,313.3,161.8,299.8,161.8z"/>
	<path class="st7" d="M386,520.4c-7.3,0-14.6,0-22.6,0c-0.1,3-0.2,6.1-0.2,9.2c0,3.2,0,6.4,0,9.8c-28.1,0-55.8,0-84.2,0
		c-0.8-5.9,0.1-12.2-0.5-19.1c-8.2,0-16.3,0-24.4,0c0-19.3,0-38.7,0-58c8.1,0,16.1,0,24.6,0c0-6.7,0-13,0-19.3c12.8,0,25.6,0,38.5,0
		c0.6,6.8-0.3,13.2,0.5,19.3c15.6,0,30.5,0,45.4,0c7.6,0,15.3,0,22.9,0C386,481.7,386,501.1,386,520.4z"/>
	<path class="st6" d="M386,520.4c0-19.3,0-38.7,0-58c7.6,0,15.3,0,22.9,0c0,19.2,0,38.3,0,58c7.3,0,14.2,0,21.1,0
		c0,20.5,0,41,0,61.5c-6.7,0-13.5,0-20.2,0c-0.2-0.2-0.5-0.4-0.6-0.6c-0.2-0.2-0.3-0.5-0.3-0.7c0-19.3,0-38.5,0-57.6
		c-0.8-0.8-1.4-1.4-2.6-2.6C399.9,520.4,393,520.4,386,520.4z"/>
	<path class="st6" d="M254,462.4c0,19.3,0,38.7,0,58c-7.6,0-15.3,0-22.9,0c0-19.2,0-38.3,0-58C239,462.4,246.5,462.4,254,462.4z"/>
	<path class="st6" d="M210,581.9c0-20.5,0-41,0-61.5c7,0,14.1,0,21.1,0c0,20.3,0,40.7,0,61.5C223.8,581.9,216.9,581.9,210,581.9z"/>
	<path class="st7" d="M430,520.4c-6.9,0-13.9,0-21.1,0c0-19.7,0-38.9,0-58c6.9,0,13.8,0,21.1,0c0-6.7,0-13,0-19.3
		c7.6,0,15.3,0,22.9,0c0,6.3,0,12.6,0,19.3c7.9,0,15.4,0,22.9,0c0,12.3,0,24.6,0,36.9c0,6.9,0,13.8,0,21.1
		C460.2,520.4,445.1,520.4,430,520.4z"/>
	<path class="st1" d="M519.8,560.8c-7.5,0-15,0-22.9,0c0-20.9,0-41.2,0-61.5c0.6,0,1.2,0,1.8,0c6.9,0,13.8,0,21.1,0
		c0,9.1,0,17.7,0,26.4C519.8,537.4,519.8,549.1,519.8,560.8z"/>
	<path class="st1" d="M475.8,499.3c0-12.3,0-24.6,0-36.9c6.5,0,12.9,0,19.4,0c0.6,0,1.2,0,1.8,0c0,9.4,0,18.8,0,28.1
		c0,2.3,0,4.7,0,7c0,0.6,0,1.2,0,1.8C489.9,499.3,482.8,499.3,475.8,499.3z"/>
	<path class="st7" d="M231.1,520.4c-7,0-14.1,0-21.1,0c-14.5,0-29,0-44,0c0-7.3,0-14.2,0-21.1c0-12.2,0-24.4,0-36.9c4,0,7.5,0,11,0
		c3.4,0,6.8-0.1,10.5-0.2c0-6.7,0-12.8,0-19.1c4.1,0,7.8,0.1,11.6,0c3.7-0.1,7.4,0.4,11-0.4c0-7.2,0-14,0-20.7c7,0,14.1,0,21.1,0
		c6.9,0,13.8,0,20.7,0c1.2,0,2.3,0.1,2.2,1.8c0,12.9,0,25.8,0,38.7c-7.5,0-15,0-22.9,0C231.1,482.1,231.1,501.2,231.1,520.4z"/>
	<path class="st1" d="M210,422c0,6.7,0,13.4,0,20.7c-3.6,0.8-7.3,0.3-11,0.4c-3.8,0.1-7.5,0-11.6,0c0,6.3,0,12.4,0,19.1
		c-3.7,0.1-7.1,0.2-10.5,0.2c-3.5,0-6.9,0-11,0c0,12.5,0,24.7,0,36.9c-7.6,0-15.3,0-22.9,0c0-2.9,0-5.9,0-8.8c0-8.8,0-17.6,0-26.4
		c0-0.6,0-1.2,0-1.8c6.9,0,13.8,0,21,0c0-5.3,0-10.2,0-14.8c0.7-0.7,1.2-1,1.5-1.5c0.5-1,0.7-2,1.1-3.2c6.1,0,12.2,0,18.7,0
		c0-6.5,0-12.9,0-19.2c0-0.6,0-1.2,0-1.8C193.6,422,201.8,422,210,422z"/>
	<path class="st0" d="M122,560.8c0-0.6,0-1.2,0-1.8c0-11.1,0-22.3,0-33.4c0-8.6,0-17.3,0-26.4c7.3,0,14.2,0,21.1,0
		c0,20.3,0,40.7,0,61.5C135.8,560.8,128.9,560.8,122,560.8z"/>
	<path class="st5" d="M340.2,360.4c15.3,0,30.5,0,45.8,0c0,6.9,0,13.9,0,21.1c-4.6,0-8.7-0.1-12.8,0c-4,0.1-8-0.5-11.9,0.4
		c0,7.2,0,14,0,20.7c-27.6,0-55.2,0-82.7,0c0-6.9,0-13.9,0-21.1c-4.6,0-8.7,0.1-12.8,0c-4-0.1-8,0.5-11.9-0.4c0-7.2,0-14,0-20.7
		c15.3,0,30.5,0,45.8,0c0,6.9,0,13.9,0,21.2c13.9-0.4,27.2,0.3,40.5-0.4C340.2,373.9,340.2,367.1,340.2,360.4z"/>
	<path class="st0" d="M254,360.4c0,6.7,0,13.4,0,20.7c3.9,0.8,7.9,0.3,11.9,0.4c4.1,0.1,8.1,0,12.8,0c0,7.2,0,14.2,0,21.1
		c-15.8,0-31.7,0-47.5,0c0-6.9,0-13.9,0-21c-15.1-0.2-29.6,0.1-44-0.2c0-7.5,0-14.2,0-21c14.4,0,28.7,0,43.7,0
		c0.7-6.2,0-12.5,0.4-19.3c7.7,0,15.2,0,22.7,0C254,347.5,254,354,254,360.4z"/>
	<path class="st1" d="M361.4,402.6c0-6.7,0-13.4,0-20.7c3.9-0.8,7.9-0.3,11.9-0.4c4.1-0.1,8.1,0,12.8,0c0-7.2,0-14.2,0-21.1
		c0-6.4,0-12.9,0-19.3c7.6,0,15.3,0,22.9,0c0,13.5,0,27,0,40.4c0,7,0,14.1,0,21.1c-15.3,0-30.5,0-45.8,0
		C362.5,402.6,362,402.6,361.4,402.6z"/>
	<path class="st14" d="M340.2,360.4c0,6.7,0,13.5,0,20.8c-13.3,0.7-26.6,0-40.5,0.4c0-7.3,0-14.3,0-21.2c0-6.1,0-12.3,0-19
		c12.7-0.7,25.4-0.1,37.8-0.4c0.9,0.9,1.5,1.5,2.7,2.7C340.2,348.9,340.2,354.7,340.2,360.4z"/>
	<path class="st1" d="M166,360.4c0-6.4,0-12.9,0-19.3c6.9,0,13.8,0,21.1,0c0,6.7,0,13,0,19.3C180.1,360.4,173,360.4,166,360.4z"/>
	<path class="st0" d="M452.9,341.1c7.3,0,14.6,0,22.7,0c0.1-3.3,0.2-6.7,0.2-10.1c0-3.5,0-6.9,0-11c7.2,0,14.2,0,21.1,0
		c0,6.9,0,13.8,0,21.3c8,0,15.4,0,23.1,0c0,6.6,0,12.7,0,19.3c7.7,0,15.1,0,22.8,0c0,7.2,0,13.8,0,21c7.8,0,15.3,0,22.8,0
		c0,1.2,0,2.3,0,3.5c0,5.9,0,11.7,0,17.6c-7,0-14.1,0-21.1,0c-1.2,0-1.8,0.5-1.8,1.8c0,5.3,0,10.5,0,15.8c0,7.5,0,14.9,0,22.9
		c-7.9,0-15.4,0-22.9,0c0-13.4,0-26.8,0-40.5c7.3,0,13.9,0,20.8,0c0-7.2,0-14,0-21.2c-15.2,0-30.1,0-45.6,0c0-13,0-25.8,0-38.3
		c-6.7,0-12.8,0-18.7,0c-0.2,0.5-0.5,0.8-0.5,1c0,19,0,38.1,0,57.1c0,0.3-0.1,0.5-0.3,0.8c-0.2,0.2-0.4,0.4-0.6,0.6
		c-7.4,0-14.7,0-22,0C452.9,382.1,452.9,361.6,452.9,341.1z"/>
	<path class="st0" d="M430,283.1c7.5,0,15,0,22.9,0c0-6.7,0-13,0-19.3c7.5,0,15,0,22.9,0c0,12.6,0,24.8,0,36.9
		c-15.3,0-30.5,0-45.8,0C430,294.8,430,288.9,430,283.1z"/>
	<path class="st0" d="M408.9,341.1c0-7,0-14.1,0-21.1c14.5,0,29,0,44,0c0,7.3,0,14.2,0,21.1c-7.6,0-15.3,0-22.9,0
		C423,341.1,415.9,341.1,408.9,341.1z"/>
	<path class="st0" d="M496.9,320c0-6.4,0-12.9,0-19.3c7.6,0,15.3,0,22.9,0c0,6.3,0,12.6,0,19.3C511.9,320,504.4,320,496.9,320z"/>
	<path class="st12" d="M430,283.1c0,5.9,0,11.7,0,17.6c-7,0-14.1,0-21.1,0c0-5.9,0-11.7,0-17.6C415.9,283.1,423,283.1,430,283.1z"/>
	<path class="st13" d="M299.8,161.8c13.5,0,27,0,40.5,0c0,6.4,0,12.9,0,19.3c0,7,0,14.1,0,21.1c0,7,0,14.1,0,21.1
		c0,6.3,0,12.6,0,19.3c7.9,0,15.4,0,22.9,0c7.6,0,15.3,0,22.9,0c0,7,0,14.1,0,21.1c-7.5,0-15,0-22.9,0c0,6.7,0,13,0,19.3
		c-28.2,0-56.3,0-84.5,0c0-6.3,0-12.6,0-19.3c-8.5,0-16.6,0-24.6,0c0-4,0.1-8,0-12c-0.1-3,0.6-6-1.6-8.8c-0.5-0.7-1.2-3.5,1.6-3.8
		c-0.1,1.8,1.7,2.1,2.5,3.5c7.3,0,14.7,0,22.2,0c6.3,0,12.6,0,18.5,0c1-1,1.6-1.6,2.6-2.6c0-5.3,0-11,0-16.7c0-6.4,0-12.9,0-19.3
		c0-7.6,0-15.2,0-22.9C299.8,174.6,299.8,168.2,299.8,161.8z"/>
	<path class="st0" d="M299.8,161.8c0,6.4,0,12.9,0,19.3c-7,0-14.1,0-21.1,0c-8.2,0-16.4,0-24.6,0c0-6.4,0-12.9,0-19.3
		C269.2,161.8,284.5,161.8,299.8,161.8z"/>
	<path class="st11" d="M278.6,242.6c-7.4,0-14.8,0-22.2,0c-0.8-1.4-2.6-1.8-2.5-3.5c0-4.7,0-9.4,0-14.1c1.9-0.3,3.1-2,5.4-1.9
		c6.4,0.3,12.8,0.1,19.2,0.1C278.6,229.7,278.6,236.2,278.6,242.6z"/>
	<path class="st12" d="M278.6,181.1c7,0,14.1,0,21.1,0c0,7.6,0,15.2,0,22.9c-1.9-0.3-3.1-2-5.4-1.9c-5.2,0.4-10.5,0.1-15.7,0.1
		C278.6,195.2,278.6,188.1,278.6,181.1z"/>
	<path class="st11" d="M278.6,202.2c5.2,0,10.5,0.2,15.7-0.1c2.3-0.2,3.5,1.6,5.4,1.9c0,6.4,0,12.9,0,19.3c-7,0-14.1,0-21.1,0
		C278.6,216.3,278.6,209.2,278.6,202.2z"/>
	<path class="st0" d="M408.9,263.7c0,6.4,0,12.9,0,19.3c-7.6,0-15.3,0-22.9,0c0-6.4,0-12.9,0-19.3
		C393.6,263.7,401.3,263.7,408.9,263.7z"/>
	<path class="st0" d="M519.8,283.1c-0.3-1.9-2.1-3.1-1.9-5.4c0.4-3.7,0.1-7.6,0.1-11.9c-6.9,0-13.7,0-21.1,0c0-8.1,0-15.6,0-23.1
		c7.6,0,15.3,0,22.9,0c0,6.9,0,13.7,0,21.1c3.8,0,7.2,0,10.6,0c4,0,7.9,0,12.3,0c0,5.6,0,10.7,0,15.8c0,6.9,0,13.8,0,21.1
		c-7.9,0-15.4,0-22.9,0C519.8,294.8,519.8,288.9,519.8,283.1z"/>
	<path class="st8" d="M519.8,242.6c-7.6,0-15.3,0-22.9,0c0-6.4,0-12.9,0-19.3c7.6,0,15.3,0,22.9,0c0,4.7,0.3,9.3-0.1,14
		c-0.2,2.3,1.6,3.5,1.9,5.4C521,242.6,520.4,242.6,519.8,242.6z"/>
	<path class="st8" d="M519.8,283.1c0,5.9,0,11.7,0,17.6c-7.6,0-15.3,0-22.9,0c0-5.7,0-11.5,0-17.6
		C504.8,283.1,512.3,283.1,519.8,283.1z"/>
	<path class="st0" d="M340.2,181.1c0-6.4,0-12.9,0-19.3c15.3,0,30.5,0,45.8,0c0,6.4,0,12.9,0,19.3c-7.6,0-15.3,0-22.9,0
		C355.5,181.1,347.9,181.1,340.2,181.1z"/>
	<path class="st12" d="M340.2,181.1c7.6,0,15.3,0,22.9,0c0,7,0,14.1,0,21.1c-7.6,0-15.3,0-22.9,0
		C340.2,195.2,340.2,188.1,340.2,181.1z"/>
	<path class="st11" d="M340.2,202.2c7.6,0,15.3,0,22.9,0c0,7,0,14.1,0,21.1c-7.6,0-15.3,0-22.9,0
		C340.2,216.3,340.2,209.2,340.2,202.2z"/>
	<path class="st11" d="M386,242.6c-7.6,0-15.3,0-22.9,0c0-6.4,0-12.9,0-19.3c7.6,0,15.3,0,22.9,0C386,229.7,386,236.2,386,242.6z"/>
	<path class="st0" d="M537.4,242.6c-2.3,0-4.7,0-7,0c-2.9,0-5.9,0-8.8,0c-0.3-1.9-2.1-3.1-1.9-5.4c0.4-4.6,0.1-9.3,0.1-14
		c0-6.4,0-12.9,0-19.3c6.9,0,13.8,0,20.9,0c0,12.3,0,24.1,0,36.8C540.5,241.8,537.1,239.8,537.4,242.6z"/>
	<path class="st0" d="M74.4,385c0-1.2,0-2.3,0-3.5c8.2,0,16.4,0,24.6,0c0,7,0,14.1,0,21.1c-8.2,0-16.4,0-24.6,0
		C74.4,396.8,74.4,390.9,74.4,385z"/>
	<path class="st0" d="M141.3,263.7c0,1.2,0.5,1.8,1.8,1.8c0,11.7,0,23.4,0,35.2c-6.5,0-12.9,0-19.4,0c0-1.2-0.5-1.8-1.8-1.8
		c0-6.4,0-12.9,0-19.3c0-4.7,0-9.4,0-14.1c1.2,0,1.8-0.5,1.8-1.8C129.6,263.7,135.5,263.7,141.3,263.7z"/>
	<path class="st4" d="M99.1,402.6c0-7,0-14.1,0-21.1c7.6,0,15.3,0,22.9,0c0,6.9,0,13.8,0,21.1c7.3,0,14.2,0,21.1,0
		c0,0.6,0,1.2,0,1.8c0,4.9,0.2,9.9-0.1,14.8c-0.1,2.2,1.3,3,2.7,4.6c13,0,26.3,0,39.6,0c0,6.3,0,12.6,0,19.2c-6.5,0-12.5,0-18.7,0
		c-0.4,1.2-0.7,2.2-1.1,3.2c-0.2,0.5-0.8,0.8-1.5,1.5c0,4.6,0,9.5,0,14.8c-7.2,0-14.1,0-21,0c0-6.3,0-12.7,0-19.6c-8,0-15.4,0-23,0
		c0-13,0-25.5,0-38.5c-6.5,0-12.9,0-19.2,0C100.9,403.2,100.3,402.6,99.1,402.6z"/>
	<path class="st8" d="M122,381.5c0-6.9,0-13.8,0-21.1c7.3,0,14.2,0,21.1,0c0,7,0,14.1,0,21.1C136.1,381.5,129,381.5,122,381.5z"/>
	<path class="st1" d="M122,298.9c1.2,0,1.8,0.5,1.8,1.8C122.5,300.7,121.9,300.1,122,298.9z"/>
	<path class="st12" d="M143.1,381.5c0-7,0-14.1,0-21.1c7.6,0,15.3,0,22.9,0c7,0,14.1,0,21.1,0c0,6.7,0,13.5,0,21
		c14.5,0.3,28.9,0,44,0.2c0,7.2,0,14.1,0,21c-7,0-14.1,0-21.1,0c-6.4,0-12.8,0.2-19.2-0.1c-2.3-0.1-3.5,1.6-5.4,1.9
		c-6.5,0-12.9,0-19.4,0c0-7.5,0-14.9,0-22.9C158.1,381.5,150.6,381.5,143.1,381.5z"/>
	<path class="st1" d="M123.7,263.7c0,1.2-0.5,1.8-1.8,1.8C121.9,264.3,122.5,263.7,123.7,263.7z"/>
	<path class="st5" d="M363.1,462.4c-14.9,0-29.9,0-45.4,0c-0.8-6.2,0.1-12.5-0.5-19.3c-12.9,0-25.7,0-38.5,0c0-7,0-14.1,0-21.1
		c28.2,0,56.3,0,84.5,0C363.1,435.4,363.1,448.9,363.1,462.4z"/>
	<path class="st6" d="M278.6,422c0,7,0,14.1,0,21.1c0,6.3,0,12.6,0,19.3c-8.5,0-16.6,0-24.6,0c0-12.9,0-25.8,0-38.7
		c1.9-0.3,3.1-2,5.4-1.9C265.8,422.2,272.2,422,278.6,422z"/>
	<path class="st6" d="M363.1,462.4c0-13.5,0-27,0-40.4c7.5,0,15,0,22.9,0c0,13.8,0,27.1,0,40.4C378.4,462.4,370.8,462.4,363.1,462.4
		z"/>
	<path class="st5" d="M386,462.4c0-13.3,0-26.6,0-40.4c-7.9,0-15.4,0-22.9,0c0-6.4,0-12.9,0-19.3c15.3,0,30.5,0,45.8,0
		c0,6.4,0,12.7,0,19.3c4.1,0,7.5,0,11,0c3.4,0,6.8,0.1,10.1,0.2c0,7.4,0,14.2,0,20.9c0,6.3,0,12.6,0,19.3c-7.3,0-14.2,0-21.1,0
		C401.3,462.4,393.6,462.4,386,462.4z"/>
	<path class="st1" d="M430,443c0-6.7,0-13.4,0-20.9c-3.3-0.1-6.7-0.2-10.1-0.2c-3.5,0-6.9,0-11,0c0-6.6,0-13,0-19.3
		c14.7,0,29.3,0,44,0c0,13.5,0,27,0,40.4C445.3,443,437.6,443,430,443z"/>
	<path class="st0" d="M475.8,462.4c-7.5,0-15,0-22.9,0c0-6.7,0-13,0-19.3c7.5,0,15,0,22.9,0C475.8,449.8,475.8,456.1,475.8,462.4z"
		/>
	<path class="st4" d="M475.8,462.4c0-6.3,0-12.6,0-19.3c-7.9,0-15.4,0-22.9,0c0-13.5,0-27,0-40.4c7.3,0,14.7,0,22,0
		c0.2-0.2,0.4-0.4,0.6-0.6c0.1-0.2,0.3-0.5,0.3-0.8c0-19,0-38.1,0-57.1c0-0.2,0.2-0.5,0.5-1c5.9,0,12,0,18.7,0c0,12.5,0,25.3,0,38.3
		c15.5,0,30.4,0,45.6,0c0,7.2,0,14,0,21.2c-6.8,0-13.5,0-20.8,0c0,13.7,0,27.1,0,40.5c-8.1,0-16.1,0-24.6,0c0,6.7,0,13,0,19.3
		C488.7,462.4,482.2,462.4,475.8,462.4z"/>
	<path class="st0" d="M519.8,443c0,6.3,0,12.6,0,19.3c-7.9,0-15.4,0-22.9,0c-0.6,0-1.2,0-1.8,0c0-6.3,0-12.6,0-19.3
		C503.7,443,511.7,443,519.8,443z"/>
	<path class="st5" d="M278.6,422c-6.4,0-12.8,0.2-19.2-0.1c-2.3-0.1-3.5,1.6-5.4,1.9c0.1-1.7-1-1.8-2.2-1.8c-6.9,0-13.8,0-20.7,0
		c0-6.4,0-12.9,0-19.3c15.8,0,31.7,0,47.5,0C278.6,409.1,278.6,415.5,278.6,422z"/>
	<path class="st1" d="M231.1,402.6c0,6.4,0,12.9,0,19.3c-7,0-14.1,0-21.1,0c0-6.4,0-12.9,0-19.3C217,402.6,224.1,402.6,231.1,402.6z
		"/>
	<path class="st0" d="M166,404.4c6.5,0,12.9,0,19.4,0c0,5.9,0,11.7,0,17.6c0,0.6,0,1.2,0,1.8c-13.3,0-26.6,0-39.6,0
		c-1.4-1.5-2.8-2.4-2.7-4.6c0.3-4.9,0.1-9.8,0.1-14.8C150.7,404.4,158.3,404.4,166,404.4z"/>
	<path class="st8" d="M185.3,422c0-5.9,0-11.7,0-17.6c1.9-0.3,3.1-2,5.4-1.9c6.4,0.3,12.8,0.1,19.2,0.1c0,6.4,0,12.9,0,19.3
		C201.8,422,193.6,422,185.3,422z"/>
	<path class="st6" d="M278.6,422c0-6.4,0-12.9,0-19.3c27.6,0,55.2,0,82.7,0c0.6,0,1.2,0,1.8,0c0,6.4,0,12.9,0,19.3
		C335,422,306.8,422,278.6,422z"/>
	<path class="st8" d="M452.9,402.6c-14.7,0-29.3,0-44,0c0-7,0-14.1,0-21.1c6.9,0,13.8,0,21.1,0c0-13.8,0-27.1,0-40.4
		c7.6,0,15.3,0,22.9,0C452.9,361.6,452.9,382.1,452.9,402.6z"/>
	<path class="st12" d="M430,341.1c0,13.3,0,26.6,0,40.4c-7.3,0-14.2,0-21.1,0c0-13.5,0-27,0-40.4C415.9,341.1,423,341.1,430,341.1z"
		/>
	<path class="st10" d="M363.1,223.3c0,6.4,0,12.9,0,19.3c-7.5,0-15,0-22.9,0c0-6.7,0-13,0-19.3C347.9,223.3,355.5,223.3,363.1,223.3
		z"/>
	<path class="st10" d="M278.6,223.3c7,0,14.1,0,21.1,0c0,5.7,0,11.4,0,16.7c-1,1-1.6,1.6-2.6,2.6c-5.9,0-12.2,0-18.5,0
		C278.6,236.2,278.6,229.7,278.6,223.3z"/>
	<path class="st0" d="M99.1,420.2c0-4.6,0-9.1,0-13.7c0-1.2,0.1-2.3,1.8-2.2c6.3,0,12.7,0,19.2,0c0,13,0,25.4,0,38.5
		c7.6,0,15.1,0,23,0c0,6.9,0,13.2,0,19.6c-0.6,0-1.2,0-1.8,0c-6.9,0-13.9,0-20.9,0c0-2.8,0-5.1,0-7.7c-2.1-1.9-4.4-4.1-4.7-7.4
		c-5.1-1-9.3-3.3-14.7-2.2C97.2,436.8,100,428.3,99.1,420.2z"/>
	<path class="st8" d="M166,404.4c-7.6,0-15.3,0-22.9,0c0-0.6,0-1.2,0-1.8c0-7,0-14.1,0-21.1c7.5,0,15,0,22.9,0
		C166,389.4,166,396.9,166,404.4z"/>
	<path class="st0" d="M143.1,381.5c0,7,0,14.1,0,21.1c-6.9,0-13.8,0-21.1,0c0-7.3,0-14.2,0-21.1C129,381.5,136.1,381.5,143.1,381.5z
		"/>
</g>
</svg>
