<?xml version="1.0" encoding="utf-8"?>
<!-- Generator: Adobe Illustrator 26.3.1, SVG Export Plug-In . SVG Version: 6.00 Build 0)  -->
<svg version="1.1"
	 id="svg3004" xmlns:svg="http://www.w3.org/2000/svg" xmlns:rdf="http://www.w3.org/1999/02/22-rdf-syntax-ns#" xmlns:cc="http://creativecommons.org/ns#" xmlns:dc="http://purl.org/dc/elements/1.1/"
	 xmlns="http://www.w3.org/2000/svg" xmlns:xlink="http://www.w3.org/1999/xlink" x="0px" y="0px" viewBox="0 0 640 640"
	 style="enable-background:new 0 0 640 640;" xml:space="preserve">
<style type="text/css">
	.st0{fill:#D50000;}
	.st1{fill:#FDFCFC;}
	.st2{fill:#D40000;}
	.st3{fill:#EBEBEB;}
	.st4{fill:#FDFDFD;}
	.st5{fill:#AFAFAF;}
	.st6{fill:#FEFDFD;}
	.st7{fill:#FEFEFE;}
	.st8{fill:#020202;}
	.st9{fill:#010101;}
	.st10{fill:#DDC9C9;}
	.st11{fill:#E0DCDC;}
	.st12{fill:#070707;}
</style>
<g>
	<path d="M534.7,337.3c1.7,0,3.3,0,5,0c0.4,2.4,0.6,156.5,0.2,165c-1.7,0-3.4,0.1-5.2,0.1c-4,0-8.1,0-12.1,0c-3.2,0-6.3,0-9.5,0
		c-0.2,0-0.4,0-0.5-0.1c0-17.4,0-34.9,0-52.3c0-0.9,0-1.7-0.1-2.6c0-14.7,0-29.4,0.1-44.1c0-3.7,0-7.4-0.1-11c0-0.9,0.1-1.7,0.1-2.6
		c0-17.4,0-34.9,0-52.3c0.2,0,0.4,0,0.5-0.1c3.2,0,6.3,0,9.5,0C526.7,337.3,530.7,337.3,534.7,337.3z"/>
	<path d="M415.6,640c-3.5,0-7,0-10.6,0c-3.5,0-7,0-10.5,0c-3.5,0-7,0-10.6,0c-3.5,0-7,0-10.5,0c-3.5,0-7,0-10.6,0c-3.5,0-7,0-10.5,0
		c-3.5,0-7,0-10.6,0c-3.5,0-7,0-10.5,0c-3.5,0-7,0-10.6,0c-3.7,0-7.4,0-11.1,0c-3.5,0-7,0-10.6,0c-3.5,0-7,0-10.5,0
		c-3.5,0-7,0-10.6,0c-3.5,0-7,0-10.5,0c-3.5,0-7,0-10.6,0c-3.5,0-7,0-10.5,0c-3.5,0-7,0-10.6,0c-3.5,0-7,0-10.5,0c-3.5,0-7,0-10.6,0
		c-1.5,0-3.1,0-4.7,0c-0.1-1.4-0.1-2.6-0.2-3.7c0.2-3.5,0.2-7,0-10.6c0-3.5,0-7,0-10.5c0-0.2,0-0.4,0-0.6c0-0.7,0-1.4,0.1-2.1
		c73.3,0,146.5,0,219.8,0c0,0.9,0.1,1.8,0.1,2.6c-0.2,3.5-0.2,7,0,10.6c-0.2,3.5-0.2,7,0,10.5c-0.1,1.2-0.1,2.4-0.2,3.6
		c-0.7,0.1-1.4,0.1-2.1,0.1C423.7,640,419.7,640,415.6,640z"/>
	<path d="M99.9,393.7c0-3.5,0-7,0-10.5c0-3.5,0-7,0-10.6c0-3.5,0-7,0-10.5c0-3.5,0-7,0-10.6c0-3.5,0-7,0-10.5c0-1.1,0-2.3,0-3.5
		c3-0.4,6.1,0,9-0.2c3.5,0,7,0,10.5,0c2.6,0,5.3,0,7.9,0.1c0,17.4,0,34.9,0,52.3c0,0.9,0,1.7,0.1,2.6c0,0.4-0.1,0.9-0.1,1.3
		c0,36.3,0,72.5,0,108.8c-2.6,0-5.3,0-7.9,0.1c-3.5,0-7,0-10.5,0c-2.9,0-5.9,0-8.9,0c-0.1-1.2-0.1-2.2-0.1-3.3c0-3.5,0-7,0-10.5
		c0-3.5,0-7,0-10.6c0-3.5,0-7,0-10.5c0-3.5,0-7,0-10.6c0-3.5,0-7,0-10.5c0-3.5,0-7,0-10.6c0-3.5,0-7,0-10.5c0-3.5,0-7,0-10.6
		c0-3.5,0-7,0-10.5C99.9,400.8,99.9,397.3,99.9,393.7z"/>
	<path d="M299.1,199.7c3.5,0,7,0,10.6,0c3.7,0,7.4,0,11.1,0c3.5,0,7,0,10.6,0c3.5,0,7,0,10.5,0c3.5,0,7,0,10.6,0c3.5,0,7,0,10.5,0
		c3.5,0,7,0,10.6,0c3.5,0,7,0,10.5,0c3.5,0,7,0,10.6,0c2.6,0,5.2,0,8,0c0,1.6,0,2.9,0,4.3c0,3.5,0,7,0,10.5c-0.1,3.5-0.1,7,0,10.5
		c0,0.7,0,1.4-0.1,2.1c-5.7,0-11.4,0-17,0c-12.4,0-24.8,0-37.2,0c-0.2,0-0.4,0-0.6-0.1c-36.7,0-73.4,0-110.1,0c0-4.2,0-8.4-0.1-12.7
		c0-3.5,0-7,0-10.5c0-1.3,0-2.6,0-4.2c3.1,0,6.1-0.1,9.1-0.1c3.5,0,7,0,10.5,0c3.5,0,7,0,10.6,0c3.5,0,7,0,10.5,0c3.5,0,7,0,10.6,0
		C292.1,199.7,295.6,199.7,299.1,199.7z"/>
	<path class="st0" d="M237.5,227.2c36.7,0,73.4,0,110.1,0c0,0.2,0,0.3,0,0.5c0,17.8,0,35.7,0,53.5c0,0.4-0.1,0.9,0.4,1.4
		c8.8,0,17.9,0,27,0c0,9.2,0,18.2,0,27.3c3.2,0,6.2,0,9.3,0c3,0,6,0,9,0c3,0,6.1-0.1,9.2,0.1c0,9,0,17.9,0,26.8
		c-0.1,0.4,0.1,0.5,0.5,0.5c0.9,0,1.8,0,2.6,0c23.9,0,47.8,0,71.7,0c2.3,0,4.6,0,6.8,0c0.2,0,0.4,0,0.5,0c0,0,0.2,0.1,0.2,0.1l0.2,0
		c9.2,0,18.3,0,27.5,0l0,0c0,17.4,0,34.9,0,52.3c0,0.9,0,1.7-0.1,2.6c-9.1,0-18.2-0.1-27.4-0.1c0-9.2,0-18.2,0-27.4
		c-18.4,0-36.6,0-54.8,0c-0.1,0-0.1,0.1-0.2,0.1c-0.1,0.1-0.1,0.1-0.3,0.3c0,8.9,0,17.9,0,27c-9.1,0-18.2,0-27.2,0
		c0,18.4,0,36.7,0,55.2c2.3,0,4.6,0,6.9,0c2.3,0,4.6,0,6.8,0s4.6,0,6.8,0c2.2,0,4.5,0,6.8,0c0,9.3,0,18.3,0,27.4l-0.1,0.1
		c-72.8,0-145.5,0-218.3,0c-0.5,0-1.1-0.2-1.5,0.3c0,9,0,18.1,0,27.1l0,0c-18.5,0-36.9,0-55.4,0c0-9.1,0-18.2,0-27.4
		c9.4,0,18.6,0,27.9,0c0-0.6,0-1,0-1.4c0-17.1,0-34.2,0-51.3c0-0.4,0-0.7,0-1.1c0.1-0.8-0.4-1.1-0.9-1.5c-8.8,0-17.7,0-26.6,0
		c-0.1,0-0.2-0.1-0.2-0.1c-0.1-0.1-0.1-0.1-0.2-0.2c0-4.5,0-8.9,0-13.4c0-4.5,0-9.1,0-13.6c-9.3,0-18.3,0-27.4,0
		c0-0.9-0.1-1.7-0.1-2.6c0-17.4,0-34.9,0-52.3l0,0c9.2,0,18.3,0,27.5,0l0.2,0l0.2,0c0.2,0,0.4,0,0.6,0c8.6,0,17.2,0,25.8,0
		c0.4-0.1,1,0.4,0.9-0.5c0-8.9,0.1-17.8,0.1-26.9c9.2,0,18.2,0,27.4,0c0-3.2,0-6.2,0-9.3c0-3,0-6,0-9c0-3-0.2-6.1,0.1-9.1
		c1.8,0,3.5,0,5.2,0c7.2,0,14.4-0.1,21.6-0.1c0.9,0.1,0.5-0.6,0.5-0.9c0-8.6,0-17.2,0-25.8c0-0.2,0-0.4,0-0.6c0.1-0.1,0.1-0.3,0-0.4
		C237.5,245.5,237.5,236.4,237.5,227.2L237.5,227.2z M237.5,447.4c36.7,0,73.1,0,109.4,0c1.1-0.7,0.7-1.7,0.7-2.5
		c0-7.7,0-15.5,0-23.2c0-0.7-0.2-1.4,0.3-2.2c8.9,0,17.9,0,26.9,0c0.4-6.2,0.3-80.2-0.2-82.3c-9,0-18,0-27.2,0c0-9.1,0-18.2,0-27.2
		c-36.7,0-73.3,0-110.1,0c0,3.1,0,6.2,0,9.2c0,3,0,6,0,9c0,3,0.1,6.1-0.1,9.2c-9.2,0-18.2,0-27.2,0c0,27.4,0,54.7,0,82.2
		c0.9,0,1.8,0,2.6,0c7.5,0,14.9,0,22.4,0c0.8,0,1.8-0.2,2.3,0.9C237.5,429.4,237.5,438.3,237.5,447.4z"/>
	<path class="st1" d="M429.9,474.9c0-9,0-18.1,0-27.4c-2.3,0-4.6,0-6.8,0c-2.3,0-4.6,0-6.8,0s-4.6,0-6.8,0c-2.3,0-4.5,0-6.9,0
		c0-18.5,0-36.8,0-55.2c9.1,0,18.1,0,27.2,0c0-9.1,0-18.1,0-27c0.2-0.2,0.2-0.3,0.3-0.3c0.1-0.1,0.1-0.1,0.2-0.1
		c18.2,0,36.5,0,54.8,0c0,9.1,0,18.1,0,27.4c9.2,0,18.3,0.1,27.4,0.1c0,3.7,0.1,7.4,0.1,11c0,14.7,0,29.4-0.1,44.1
		c-9.1,0-18.2,0.1-27.2,0.1c-0.1,0.3-0.2,0.3-0.2,0.4c0,8.9,0,17.7,0,26.6c0,0.1-0.1,0.1-0.1,0.2c-0.1,0.1-0.1,0.1-0.2,0.2
		c-8.8,0-17.5,0-26.3,0C449,474.9,439.5,474.9,429.9,474.9z"/>
	<path class="st2" d="M429.9,474.9c9.6,0,19.1,0,28.7,0c8.8,0,17.5,0,26.3,0c0.1-0.1,0.1-0.1,0.2-0.2c0-0.1,0.1-0.1,0.1-0.2
		c0-8.9,0-17.7,0-26.6c0-0.1,0.1-0.1,0.2-0.4c9,0,18.1-0.1,27.2-0.1c0,0.9,0.1,1.7,0.1,2.6c0,17.4,0,34.9,0,52.3l0,0
		c-27.6,0-55.2,0-82.8,0l0,0C429.9,493.2,429.9,484.1,429.9,474.9C429.8,474.9,429.9,474.9,429.9,474.9z"/>
	<path class="st3" d="M513.1,502.4c0,0.3-0.2,0.5-0.5,0.5c0-0.2,0-0.4,0-0.5c0,0,0,0,0,0C512.8,502.4,513,502.4,513.1,502.4z"/>
	<path class="st3" d="M512.6,336.8c0.3,0,0.5,0.1,0.5,0.5c-0.2,0-0.4,0-0.5,0.1l0,0C512.6,337.2,512.6,337,512.6,336.8z"/>
	<path class="st4" d="M429.9,612.5c-73.3,0-146.5,0-219.8,0l0.1,0.1c0-9.1,0-18.2,0-27.4c-9.3,0-18.4,0-27.5,0c0-18.2,0-36.5,0-54.7
		c0-0.1,0.1-0.3,0.2-0.6c2.2,0,4.5,0,6.7,0c2.3,0,4.6,0,6.8,0c2.3,0,4.6,0,6.8,0c2.2,0,4.5,0.1,6.8-0.1c0-9.3,0-18.3,0-27.3l0,0
		c18.2,0,36.5,0,54.6,0c0.1,0.3,0.2,0.3,0.2,0.4c0,18,0,36,0,54c0,0.1,0.1,0.1,0.1,0.2c0.1,0.1,0.1,0.1,0.1,0.1c9.1,0,18.1,0,27.3,0
		c0-18.3,0-36.4,0-54.7c1,0,1.8,0,2.7,0c17.4,0,34.8,0,52.2,0c0.1,0,0.1,0.1,0.2,0.1c0.1,0.1,0.1,0.1,0.2,0.2c0,18,0,36,0,54
		c0,0.1,0,0.2,0.1,0.2c0,0.1,0.1,0.1,0.2,0.2c9,0,18,0,27,0c0.1-0.2,0.2-0.2,0.2-0.3c0-18,0-36,0-54c0-0.1,0.1-0.2,0.1-0.2
		c0.1-0.1,0.1-0.1,0.2-0.2c18.2,0,36.3,0,54.5,0l0,0c0,9.1,0,18.2,0,27.4c2.5,0,4.8,0,7,0c2.3,0,4.6,0,6.8,0s4.6,0,6.8,0
		c2.2,0,4.5-0.2,6.7,0.2c0,18.5,0,36.8,0,55.2c-9.1,0-18.2,0-27.4,0c0,1,0,1.9,0,2.7C429.9,596,429.8,604.3,429.9,612.5L429.9,612.5
		z"/>
	<path class="st1" d="M127.4,392.3c9,0,18.1,0,27.4,0c0,4.5,0,9.1,0,13.6c0,4.5,0,8.9,0,13.4c0.1,0.1,0.1,0.2,0.2,0.2
		c0.1,0.1,0.1,0.1,0.2,0.1c8.9,0,17.7,0,26.6,0c0.5,0.4,1,0.7,0.9,1.5c-0.1,0.3,0,0.7,0,1.1c0,17.1,0,34.2,0,51.3c0,0.4,0,0.8,0,1.4
		c-9.3,0-18.5,0-27.9,0c0,9.3,0,18.4,0,27.4c-9.1,0-18.3,0-27.4,0l0.1,0.1c0-36.3,0-72.5,0-108.8
		C127.4,393.1,127.4,392.7,127.4,392.3z"/>
	<path class="st4" d="M402.5,336.8c0-8.9,0-17.7,0-26.8c-3.1-0.3-6.2-0.1-9.2-0.1c-3,0-6,0-9,0c-3.1,0-6.1,0-9.3,0
		c0-9.2,0-18.2,0-27.3c-9.1,0-18.2,0-27,0c-0.6-0.5-0.4-0.9-0.4-1.4c0-17.8,0-35.7,0-53.5c0.3,0,0.5-0.1,0.6-0.5
		c12.4,0,24.8,0,37.2,0c5.7,0,11.4,0,17,0l-0.1-0.1c0.1,9.2,0,18.3,0.1,27.5c18.5,0,36.7,0,54.9,0c0.1,0,0.2-0.1,0.3,0
		c0,8.6,0,17.2,0,25.7c0,0.4,0,0.9,0,1.3c0,0.1,0.1,0.1,0.1,0.2c0.1,0.1,0.1,0.1,0.3,0.3c8.9-0.6,18,0.5,27,0.4
		c0,3.4-0.1,6.8-0.1,10.3c0,14.8,0,29.7,0,44.5l-0.2,0l-0.2-0.1c-0.1-0.1-0.1-0.3-0.2-0.3c-0.3,0-0.3,0.2-0.3,0.4
		c-2.3,0-4.6,0-6.8,0c-23.9,0-47.8,0-71.7,0c-0.9,0-1.8,0-2.6,0C403,337,402.8,336.8,402.5,336.8z"/>
	<path class="st5" d="M348.2,227.3c0,0.3-0.2,0.5-0.6,0.5c0-0.2,0-0.3,0-0.5C347.8,227.2,348,227.3,348.2,227.3z"/>
	<path class="st6" d="M237.5,447.4c0-9.1,0-18,0-26.8c-0.6-1.2-1.5-0.9-2.3-0.9c-7.5,0-14.9,0-22.4,0c-0.9,0-1.7,0-2.6,0
		c0-27.5,0-54.8,0-82.2c9,0,18,0,27.2,0c0.3-3.2,0.1-6.2,0.1-9.2c0-3,0-6,0-9c0-3.1,0-6.1,0-9.2c36.8,0,73.3,0,110.1,0
		c0,9.1,0,18.1,0,27.2c9.1,0,18.2,0,27.2,0c0.4,2.1,0.6,76.1,0.2,82.3c-9,0-18,0-26.9,0c-0.6,0.8-0.3,1.5-0.3,2.2
		c0,7.7,0,15.5,0,23.2c0,0.8,0.4,1.8-0.7,2.5C310.6,447.4,274.2,447.4,237.5,447.4z"/>
	<path d="M429.9,502.3c-18.2,0-36.3,0-54.5,0c-0.1,0.1-0.2,0.1-0.2,0.2c0,0.1-0.1,0.1-0.1,0.2c0,18,0,36,0,54c0,0.1-0.1,0.1-0.2,0.3
		c-8.9,0-18,0-27,0c0,0-0.1-0.1-0.2-0.2c0-0.1-0.1-0.2-0.1-0.2c0-18,0-36,0-54c-0.1-0.1-0.1-0.1-0.2-0.2c-0.1-0.1-0.1-0.1-0.2-0.1
		c-17.4,0-34.8,0-52.2,0c-0.9,0-1.7,0-2.7,0c0,18.3,0,36.4,0,54.7c-9.1,0-18.1,0-27.3,0c0,0.1,0,0-0.1-0.1c-0.1-0.1-0.1-0.1-0.1-0.2
		c0-18,0-36,0-54c0-0.1-0.1-0.1-0.2-0.4c-18.1,0-36.4,0-54.6,0c0-9,0-18.1,0-27.1c0.4-0.5,1-0.3,1.5-0.3c72.8,0,145.5,0,218.3,0
		C429.9,484.1,429.9,493.2,429.9,502.3z"/>
	<path class="st7" d="M236.9,282.4c-7.2,0-14.4,0.1-21.6,0.1c-1.7,0-3.3,0-5.2,0c-0.3,3.1-0.1,6.1-0.1,9.1c0,3,0,6,0,9
		c0,3.1,0,6.1,0,9.3c-9.2,0-18.2,0-27.4,0c0,9.1-0.1,18-0.1,26.9c-0.4,0.1-0.9-0.1-0.9,0.5c-8.6,0-17.2,0-25.8,0
		c0-0.2-0.1-0.4-0.3-0.4c-0.1,0-0.1,0.2-0.2,0.4l-0.2,0c0,0-0.2,0-0.2,0c0-0.3,0-0.7,0-1c0-17.5,0-35,0-52.4c0-0.4,0.1-0.9,0.1-1.3
		c0,0,0.2,0,0.2,0l0.2,0c3.3,0,6.6-0.1,10,0c3.4,0.1,6.7-0.7,10.1-0.5c2.2,0.1,4.5,0,6.9,0c0-9.3,0-18.4,0-27.5c0.1,0,0.2,0,0.3,0
		c7.5,0,15.1,0,22.6,0c10.8,0,21.6,0,32.3,0c0,0.1,0,0.3,0,0.4c-0.1,0.1-0.3,0.1-0.4,0.2c0,0.3,0.2,0.3,0.4,0.3c0,8.6,0,17.2,0,25.8
		C236.8,281.6,237,282.1,236.9,282.4z"/>
	<path class="st8" d="M127.3,509.7c0-2.5,0-4.9,0-7.4c9.1,0,18.3,0,27.4,0c18.5,0,36.9,0,55.4,0c0,9,0,18.1,0,27.3
		c-2.3,0.2-4.5,0.1-6.8,0.1c-2.3,0-4.6,0-6.8,0c-2.3,0-4.6,0-6.8,0c-2.3,0-4.5,0-6.7,0c-0.1,0.3-0.2,0.4-0.2,0.6
		c0,18.2,0,36.5,0,54.7l0,0c-3.5,0-7,0-10.6,0c-3.5,0-7,0-10.5,0c-2.3,0-4.5-0.1-6.8-0.1c0-0.6,0-1.1,0-1.5c0-3.5,0-7,0-10.5
		c0-3.5,0-7,0-10.5c0-3.5,0-7,0-10.5c0-3.5,0-7,0-10.5c0-3.7,0-7.4,0-11.1c0-0.1-0.1-0.2-0.1-0.2c-0.1-0.1-0.1-0.1-0.2-0.2
		c-0.4,0-0.8,0-1.2,0.1c-0.7,0-1.4,0-2.2,0c-3.5,0-7,0-10.5,0c-1-0.2-2.1-0.1-3.1-0.1c-2.5-0.1-5-0.2-7.4,0c-0.9,0-1.7-0.1-2.6-0.1
		c0-3.2,0-6.3,0-9.5C127.3,516.7,127.3,513.2,127.3,509.7z"/>
	<path class="st9" d="M154.9,282.5c0,0.4-0.1,0.9-0.1,1.3c0,17.5,0,35,0,52.4c0,0.3,0,0.7,0,1c-9.2,0-18.3,0-27.5,0
		c0-2.3,0-4.6,0-6.9c0-3.5,0-7,0-10.5c0-3.5,0-7,0-10.5c0-3.5,0-7,0-10.5c0-3.5,0-7,0-10.5c0-1.9,0-3.7,0-5.5c0.9-0.6,1.9,0,2.6-0.4
		c3.5,0.2,7.1,0.2,10.6,0c3.5,0.2,7,0.2,10.5,0C152.3,282.4,153.6,282.5,154.9,282.5z"/>
	<path class="st9" d="M237.5,254.7c-10.8,0-21.6,0-32.3,0c-7.5,0-15.1,0-22.6,0c0.2-2.8,0.2-5.6,0-8.4c0.2-3.5,0.2-7.1,0-10.6
		c0.1-2.8,0.1-5.6,0.2-8.4c3.5,0,7,0,10.5-0.1c3.5,0,7,0,10.5,0c3.7,0,7.4,0,11.1,0c3.5,0,7,0,10.5,0c4,0,8.1,0,12.1,0
		C237.5,236.4,237.5,245.5,237.5,254.7z"/>
	<path class="st9" d="M512.1,282.4c0.5,0.2,0.5,0.6,0.5,1c0,1.6,0,3.3,0,4.9c0,3.5,0,7,0,10.5c0,3.5,0,7,0,10.5c0,3.5,0,7,0,10.5
		c0,3.5,0,7,0,10.5c0,2.1,0,4.2,0,6.3c0,0.2,0,0.4,0,0.5c-9.2,0-18.3,0-27.5,0c0-14.8,0-29.7,0-44.5c0-3.4,0-6.8,0.1-10.3
		c0,0,0,0,0,0c1.9-0.2,3.9,0.2,5.8-0.2c3.5,0.3,7,0.3,10.6,0C505,282.6,508.6,282.5,512.1,282.4z"/>
	<path class="st10" d="M181.6,337.3c0.1-0.6,0.6-0.5,0.9-0.5C182.6,337.7,182,337.3,181.6,337.3z"/>
	<path class="st10" d="M236.9,282.4c0.1-0.4-0.1-0.9,0.5-0.9C237.4,281.9,237.8,282.5,236.9,282.4z"/>
	<path class="st11" d="M484.1,337.3c0-0.2,0.1-0.4,0.3-0.4c0.1,0,0.1,0.2,0.2,0.3C484.5,337.3,484.3,337.3,484.1,337.3z"/>
	<path class="st11" d="M402.5,336.8c0.3,0,0.5,0.2,0.5,0.5C402.6,337.4,402.4,337.2,402.5,336.8z"/>
	<path class="st10" d="M155.3,337.3c0.1-0.1,0.1-0.3,0.2-0.4c0.3-0.1,0.3,0.2,0.3,0.4C155.6,337.3,155.4,337.3,155.3,337.3z"/>
	<path class="st10" d="M237.4,255.7c-0.2,0-0.4-0.1-0.4-0.3c0-0.1,0.2-0.1,0.4-0.2C237.4,255.3,237.4,255.5,237.4,255.7z"/>
	<path class="st8" d="M512.6,520.2c0,3.1,0,6.2,0,9.5c-3.8,0.1-7.5,0.1-11.1,0.2c-3.5-0.2-7-0.2-10.6,0c-1.9,0-3.8,0-5.8,0
		c0,3.9,0,7.7,0,11.5c0,3.5,0,7,0,10.5c0,3.5,0,7,0,10.5c0,3.5,0,7,0,10.5c0,3.5,0,7,0,10.5c-0.1,0.5,0.1,1-0.3,1.6
		c-1.4,0-2.9,0-4.4,0c-3.5,0-7,0-10.5,0c-3.5,0-7,0-10.5,0c-0.7,0-1.4,0-2.1,0l0,0c0-18.3,0-36.7,0-55.2c-2.2-0.4-4.5-0.1-6.7-0.2
		c-2.3,0-4.6,0-6.8,0s-4.6,0-6.8,0c-2.3,0-4.5,0-7,0c0-9.2,0-18.3,0-27.4c27.6,0,55.2,0,82.8,0c0,0.2,0,0.4,0,0.5c0,2.3,0,4.6,0,6.8
		C512.6,513.2,512.6,516.7,512.6,520.2z"/>
	<path class="st8" d="M204.8,612.9c-1.8-0.7-3.7-0.5-5.6-0.5c-2,0-4,0-6,0c-3.5,0-7,0-10.5-0.1c-0.1-2.6-0.1-5.2-0.2-7.9
		c0.2-3.5,0.3-7.1,0-10.6c0.1-3,0.1-6,0.2-8.9l0,0c9.1,0,18.2,0,27.5,0c0,9.2,0,18.3,0,27.4c-1.5,0-3.1,0-4.6-0.1
		C205.2,612.4,204.9,612.5,204.8,612.9z"/>
	<path class="st8" d="M457.4,604.6c0,2.5,0,5,0,7.8c-2.9,0-5.8,0.1-8.6,0.1c-3.5,0-7,0-10.5,0c-2.8,0-5.6,0-8.5,0
		c0-8.2,0-16.5,0.1-24.7c0-0.9,0-1.7,0-2.7c9.2,0,18.3,0,27.4,0l0,0c0.1,3,0.1,5.9,0.2,8.9C457.2,597.5,457.2,601.1,457.4,604.6z"/>
	<path class="st9" d="M448.8,227.2c2.7,0,5.4,0,8,0c0.7,0.5,0.4,1.2,0.4,1.8c0,7.7,0,15.4,0,23.1c0,0.9,0.1,1.7,0.1,2.6
		c-18.2,0-36.4,0-54.9,0c-0.1-9.2,0-18.3-0.1-27.5c4.4,0,8.8,0,13.2,0c4,0,8.1,0,12.1,0c3.5,0,7,0,10.5,0
		C441.8,227.2,445.3,227.2,448.8,227.2z"/>
	<path class="st12" d="M457.7,254.6c0.5,0,1.1,0,1.6,0c3.5,0,7,0,10.5,0c3.5,0,7,0,10.5,0c1.5,0,3,0,4.6,0c0,0.8,0.1,1.4,0.1,2.1
		c0,3.5,0,7,0,10.5c0,3.5,0,7,0,10.5c0,1.6,0,3.2,0,4.8l0,0c-9.1,0.1-18.1-0.9-27-0.4c-0.2-0.2-0.3-0.3-0.3-0.3
		c-0.1-0.1-0.1-0.1-0.1-0.2c0-0.4,0-0.9,0-1.3C457.7,271.7,457.7,263.2,457.7,254.6z"/>
	<path class="st12" d="M182.2,254.6c0,9.1,0,18.2,0,27.5c-2.4,0-4.6,0.1-6.9,0c-3.4-0.2-6.7,0.6-10.1,0.5c-3.3-0.1-6.6,0-10,0
		c0-1.4,0-2.7,0-4.1c0-0.4-0.2-0.6-0.6-0.6c0-3.5,0-7,0.1-10.6c0-3.5,0-7,0-10.5c0.2-0.6-0.2-1.3,0.3-2.1c2.2,0,4.4,0,6.6,0
		c3.5,0,7,0,10.5,0C175.5,254.6,178.8,254.6,182.2,254.6z"/>
</g>
</svg>
