<?xml version="1.0" encoding="utf-8"?>
<!-- Generator: Adobe Illustrator 26.3.1, SVG Export Plug-In . SVG Version: 6.00 Build 0)  -->
<svg version="1.1"
	 id="svg3004" xmlns:svg="http://www.w3.org/2000/svg" xmlns:rdf="http://www.w3.org/1999/02/22-rdf-syntax-ns#" xmlns:cc="http://creativecommons.org/ns#" xmlns:dc="http://purl.org/dc/elements/1.1/"
	 xmlns="http://www.w3.org/2000/svg" xmlns:xlink="http://www.w3.org/1999/xlink" x="0px" y="0px" viewBox="0 0 640 640"
	 style="enable-background:new 0 0 640 640;" xml:space="preserve">
<style type="text/css">
	.st0{fill:#F27736;}
	.st1{fill:#F6F6F6;}
	.st2{fill:#FEFEFE;}
	.st3{fill:#008000;}
</style>
<g>
	<path d="M455,591c7.9,0,15.7,0,23.7,0c0.2,0.2,0.4,0.4,0.6,0.7c0.2,0.3,0.3,0.6,0.3,0.9c0,15.7,0,31.3,0,47.3
		c-65.9,0-131.4,0-197.2,0c0-16.3,0-32.2,0-48.6c-8.1,0-15.9,0-24.4,0c-0.9,15.8,0.1,32-0.5,48.6c-49,0-97.8,0-147,0
		c0.1,0.1-0.2-0.1-0.4-0.3c-0.2-0.2-0.4-0.6-0.4-0.9c0-15.7,0-31.3,0-47.7c8.4,0,16.5,0,24.7,0c0,8,0,16.1,0,24.6
		c8.6,0,16.6,0,24.7,0c24.5,0,49.1,0,74,0C233,607,233.2,599,233,591c-25.3,0-49.6,0-73.9,0c-8.2,0-16.4,0-24.7,0
		c0-8.2,0-16.4,0-24.6c49.1,0,98.3,0,148.1,0c0-8.5,0-16.5,0-24.8c24.9,0,49.1,0,73.9,0c0-8.3,0-16.3,0-24.6c8.5,0,16.2,0,24.5,0
		c0-57.6,0-114.9,0-172.2c8.1,0,16.2,0,24.7,0c0,32.8,0,64.8,0,96.9c0,0.3,0.2,0.6,0.3,0.9c0.2,0.3,0.4,0.5,0.6,0.7
		c8,0,15.8,0,23.7,0c0,7.9,0,15.7,0,24.4c-3.9,0.1-7.9,0.2-11.9,0.2c-4.1,0-8.1,0-12.8,0c0,24.9,0,49.4,0,73.9c-8.1,0-16.2,0-24.7,0
		c0,8.5,0,16.2,0,24.7c-24.8,0-49.2,0-73.7,0c0,16.7,0,32.6,0,49.2c41.2,0,82.1,0,123.1,0c8.1,0,16.1,0,24.7,0
		C455,607.1,455,599.1,455,591z"/>
	<path d="M134.4,566.4c-8.1,0-16.2,0-24.5,0c0-24.7,0-48.8,0-73.6c7.8,0,15.8,0,24.5,0c0-8.7,0-16.8,0-24.9c8.1,0,16.2,0,24.7,0
		c0,4.7,0,8.8,0,12.8c0,4,0.2,7.9,0.2,11.5c8.6,0,16.3,0,24.4,0c0-4.4,0-8.4,0-12.5c0-3.9,0.1-7.9,0.2-11.8c8.7,0,16.6,0,24.4,0
		c0,8.1,0,16.2,0,24.6c4.7,0,8.8,0,12.8,0c4,0,7.9-0.2,11.8-0.2c0-8.7,0-16.5,0-24.4c8.1,0,16.2,0,24.7,0c0,4.7,0,8.8,0,12.8
		c0,4,0.2,7.9,0.2,11.4c8.6,0,16.4,0,24.5,0c0-8.1,0-15.9,0-24.3c16.6,0,33,0,49.3,0c0,8.1,0,16.2,0,24.7c-8.5,0-16.2,0-24.7,0
		c0,8.3,0,16.4,0,24.6c-57.5,0-114.2,0-170.9,0c-0.3,0-0.6,0.2-0.9,0.3c-0.3,0.2-0.5,0.5-0.7,0.7
		C134.4,534.3,134.4,550.4,134.4,566.4z"/>
	<path d="M257.7,246.3c24.4,0,48.9,0,74,0c0-8.5,0-16.5,0-24.6c16.3,0,32.6,0,49.3,0c0,41.4,0,82.3,0,123.1c-8.2,0-16.4,0-24.7,0
		c0-24.5,0-49,0-73.9c-8.7,0.1-16.7-0.1-24.7,0.2c0,25.2,0,49.5,0,73.8c-8.1,0-16.2,0-24.7,0c0-24.6,0-48.4,0-72.3
		c0-0.3-0.2-0.6-0.3-0.9c-0.2-0.3-0.5-0.5-0.7-0.7c-16.1,0-32.2,0-48.2,0C257.7,262.7,257.7,254.5,257.7,246.3z"/>
	<path d="M479.6,73.9c7.8,0,15.7,0,23.5,0c0.3,0.2,0.5,0.4,0.7,0.7c0.2,0.2,0.4,0.6,0.4,0.9c0,40.5,0,81.1,0,121.6
		c-8.2,0-16.4,0-24.7,0c0-8.1,0-16.2,0-24.6c-4.7,0-8.8,0-12.9,0c-4,0-7.9-0.1-11.5-0.2c0-25,0-49.2,0-73.7c4.4,0,8.4,0,12.5,0
		c4,0,7.9-0.2,11.8-0.2C479.6,89.6,479.6,81.7,479.6,73.9z"/>
	<path d="M134.4,467.9c-7.9,0-15.7,0-23.6,0c-1.5-8.9-2.1-113.9-0.7-147.8c8.1,0,16.2,0,24.3,0c0,16.2,0,32.4,0,49.3
		c8.5,0,16.6,0,24.7,0c0,8.2,0,16.4,0,24.6c-8.1,0-16.2,0-24.7,0C134.4,419.1,134.4,443.5,134.4,467.9z"/>
	<path d="M356.3,98.5c0-8.1,0-16.2,0-24.5c8.4,0,16.1,0,24.5,0c0-16.4,0-32.6,0-49.4c8.7,0,16.8,0,24.9,0c0,41,0,82.1,0,123.1
		c-8.1,0-16.2,0-24.5,0c-0.5-16.9,0.4-33.1-0.5-49.3C372.1,98.5,364.2,98.5,356.3,98.5z"/>
	<path d="M504.3,197c7.8,0,15.7,0,23.5,0c0.2,0.2,0.5,0.4,0.7,0.7c0.2,0.2,0.4,0.6,0.4,0.9c0,40.2,0,80.4,0,121.1
		c-16.2,0-32.4,0-49.3,0c0-8,0-16,0-24.1c8.1,0,16.2,0,24.7,0C504.3,262.3,504.3,229.6,504.3,197z"/>
	<path d="M331.7,221.6c-7.9,0-15.7,0-23.6,0c-1.5-8.6-2-67.9-0.7-98.5c8.1,0,16.2,0,24.3,0C331.7,156,331.7,188.8,331.7,221.6z"/>
	<path d="M455,270.9c-8.1,0-16.2,0-24.7,0c0,16.8,0,33,0,49.3c-8.1,0-16.2,0-24.2,0c0-25,0-49.3,0-73.9c16.1,0,31.7,0,47.4,0
		c0.3,0,0.6,0.2,0.9,0.4c0.3,0.2,0.4,0.5,0.7,0.7C455,255.2,455,263.1,455,270.9z"/>
	<path d="M455,344.8c16.1,0,32.1,0,48.2,0c0.2,0.2,0.5,0.4,0.7,0.7c0.2,0.2,0.3,0.6,0.3,0.9c0,15.7,0,31.3,0,47.7
		c-8.4,0-16.5,0-24.7,0c0-8.1,0-16.2,0-24.6c-4.7,0-8.8,0-12.8,0c-4,0-7.9-0.2-11.8-0.2C455,360.5,455,352.6,455,344.8z"/>
	<path d="M183.8,246.3c0-7.9,0-15.7,0-23.6c0.2-0.2,0.4-0.5,0.7-0.7c0.3-0.2,0.6-0.3,0.9-0.3c23.9,0,47.8,0,72.4,0
		c0,8.4,0,16.5,0,24.6C233.1,246.3,208.4,246.3,183.8,246.3z"/>
	<path d="M479.6,394c0,8.1,0,16.1,0,24.5c-8.3,0-16,0-24.4,0c0,8.2,0,16.2,0,24.8c-8.7,0-16.8,0-24.9,0c0-16.2,0-32.5,0-49.3
		C447.1,394,463.4,394,479.6,394z"/>
	<path d="M405.7,24.6c0-7.9,0-15.7,0-23.6c0.2-0.2,0.4-0.5,0.7-0.7c0.3-0.2,0.6-0.3,0.9-0.3c15.7,0,31.4,0,47.7,0
		c0,8.4,0,16.5,0,24.6C438.5,24.6,422.1,24.6,405.7,24.6z"/>
	<path d="M455,24.6c8.1,0,16.2,0,24.7,0c0,16.8,0,33,0,49.3c-8.1,0-16.2,0-24.7,0C455,57.1,455,40.9,455,24.6z"/>
	<path d="M134.4,320.2c0-16.2,0-32.4,0-49.3c8.5,0,16.6,0,24.7,0c0,16.2,0,32.4,0,49.3C150.6,320.2,142.5,320.2,134.4,320.2z"/>
	<path d="M331.7,123.1c0-8,0-16.1,0-24.6c8.6,0,16.6,0,24.7,0c0,8,0,16.1,0,24.6C347.8,123.1,339.7,123.1,331.7,123.1z"/>
	<path d="M159.1,270.9c0-8,0-16.1,0-24.6c8.6,0,16.6,0,24.7,0c0,8.2,0,16.4,0,24.6C175.5,270.9,167.3,270.9,159.1,270.9z"/>
	<path d="M479.6,295.5c-8.1,0-16.1,0-24.7,0c0-8.5,0-16.6,0-24.6c8.1,0,16.1,0,24.7,0C479.6,279.4,479.6,287.5,479.6,295.5z"/>
	<path d="M430.3,566.4c8.1,0,16.1,0,24.7,0c0,8.5,0,16.6,0,24.6c-8.2,0-16.4,0-24.7,0C430.3,582.8,430.3,574.6,430.3,566.4z"/>
	<path d="M430.3,320.2c8.1,0,16.1,0,24.7,0c0,8.5,0,16.6,0,24.6c-8.1,0-16.1,0-24.7,0C430.3,336.2,430.3,328.2,430.3,320.2z"/>
	<path d="M405.7,541.8c8.1,0,16.1,0,24.7,0c0,8.5,0,16.6,0,24.6c-8.1,0-16.1,0-24.7,0C405.7,557.9,405.7,549.8,405.7,541.8z"/>
	<path class="st0" d="M430.3,320.2c0,8,0,16.1,0,24.6c8.6,0,16.6,0,24.7,0c0,7.8,0,15.7,0,24.4c3.9,0.1,7.9,0.2,11.8,0.2
		c4.1,0,8.1,0,12.8,0c0,8.4,0,16.5,0,24.6c-16.3,0-32.5,0-49.3,0c0,16.8,0,33,0,49.3c-7.9,0-15.7,0-23.7,0c-0.2-0.2-0.4-0.4-0.6-0.7
		c-0.2-0.3-0.3-0.6-0.3-0.9c0-32.1,0-64.1,0-96.9c-8.4,0-16.5,0-24.7,0c0-40.8,0-81.7,0-123.1c-16.7,0-33,0-49.3,0
		c0-32.8,0-65.7,0-98.5c8.1,0,16.1,0,24.7,0c0-8.5,0-16.6,0-24.6c7.9,0,15.7,0,24.3,0c0.9,16.2,0,32.4,0.5,49.3c8.3,0,16.4,0,24.5,0
		c0,16.2,0,32.4,0,49.3c8.5,0,16.6,0,24.7,0c0,8,0,16.1,0,24.6c8.6,0,16.6,0,24.7,0c8.1,0,16.1,0,24.7,0c0-8.5,0-16.6,0-24.6
		c8.2,0,16.4,0,24.7,0c0,32.6,0,65.2,0,98.5c-8.5,0-16.6,0-24.7,0c0-8,0-16.1,0-24.6c-8.6,0-16.6,0-24.7,0c0-7.8,0-15.7,0-23.5
		c-0.2-0.3-0.4-0.5-0.7-0.7c-0.2-0.2-0.6-0.4-0.9-0.4c-15.7,0-31.3,0-47.4,0c0,24.5,0,48.9,0,73.9
		C414.1,320.2,422.2,320.2,430.3,320.2z"/>
	<path class="st1" d="M356.3,344.8c8.2,0,16.4,0,24.7,0c0,57.3,0,114.6,0,172.2c-8.2,0-16,0-24.5,0c0,8.3,0,16.3,0,24.6
		c-24.9,0-49.1,0-73.9,0c0,8.3,0,16.3,0,24.8c-49.8,0-99,0-148.1,0c0-16.1,0-32.1,0-48.2c0.2-0.2,0.4-0.5,0.7-0.7
		c0.3-0.2,0.6-0.3,0.9-0.3c56.7,0,113.5,0,170.9,0c0-8.2,0-16.3,0-24.6c8.5,0,16.3,0,24.7,0c0-8.4,0-16.5,0-24.7
		c8.1,0,16.2,0,24.7,0C356.3,426.4,356.3,385.6,356.3,344.8z"/>
	<path class="st0" d="M405.7,541.8c0,8,0,16.1,0,24.6c8.6,0,16.6,0,24.7,0c0,8.2,0,16.4,0,24.6c0,8.2,0,16.4,0,24.6
		c-41,0-81.9,0-123.1,0c0-16.6,0-32.5,0-49.2c24.5,0,48.9,0,73.7,0c0-8.4,0-16.2,0-24.7C389.4,541.8,397.5,541.8,405.7,541.8z"/>
	<path class="st0" d="M159.1,591c24.3,0,48.6,0,73.9,0c0.3,8,0,16,0.2,24.6c-24.9,0-49.5,0-74,0C159.1,607.5,159.1,599.3,159.1,591z
		"/>
	<path class="st2" d="M159.1,591c0,8.2,0,16.4,0,24.6c-8.1,0-16.1,0-24.7,0c0-8.5,0-16.6,0-24.6C142.7,591,150.9,591,159.1,591z"/>
	<path class="st1" d="M430.3,615.7c0-8.2,0-16.4,0-24.6c8.2,0,16.4,0,24.7,0c0,8,0,16.1,0,24.6C446.4,615.7,438.4,615.7,430.3,615.7
		z"/>
	<path class="st3" d="M331.7,467.9c-16.3,0-32.6,0-49.3,0c0,8.4,0,16.2,0,24.3c-8.1,0-15.8,0-24.5,0c-0.1-3.5-0.2-7.5-0.2-11.4
		c0-4,0-8.1,0-12.8c-8.4,0-16.5,0-24.7,0c0-8.2,0-16.4,0-24.6c8.1,0,16.1,0,24.7,0c0-8.5,0-16.6,0-24.6c8.1,0,16.1,0,24.7,0
		c0-8.5,0-16.6,0-24.6c8.2,0,16.4,0,24.7,0c0,8.1,0,16.2,0,24.6c4.7,0,8.8,0,12.9,0c4,0,7.9,0.1,11.8,0.2
		C331.7,435.8,331.7,451.9,331.7,467.9z"/>
	<path class="st3" d="M134.4,467.9c0-24.4,0-48.8,0-73.9c8.5,0,16.6,0,24.7,0c0,8,0,16.1,0,24.6c8.6,0,16.6,0,24.7,0
		c0,8,0,16.1,0,24.6c8.6,0,16.6,0,24.7,0c0,8.2,0,16.4,0,24.6c-7.9,0-15.7,0-24.4,0c-0.1,3.9-0.2,7.8-0.2,11.8c0,4.1,0,8.1,0,12.5
		c-8.1,0-15.8,0-24.4,0c-0.1-3.6-0.2-7.5-0.2-11.5c0-4,0-8.1,0-12.8C150.7,467.9,142.6,467.9,134.4,467.9z"/>
	<path class="st3" d="M233.1,467.9c0,7.8,0,15.7,0,24.4c-3.9,0.1-7.9,0.2-11.8,0.2c-4.1,0-8.1,0-12.8,0c0-8.4,0-16.5,0-24.6
		C216.6,467.9,224.8,467.9,233.1,467.9z"/>
	<path class="st3" d="M257.7,270.9c16.1,0,32.2,0,48.2,0c0.2,0.2,0.5,0.4,0.7,0.7c0.2,0.3,0.3,0.6,0.3,0.9c0,23.9,0,47.7,0,72.3
		c8.4,0,16.5,0,24.7,0c0,16.2,0,32.4,0,49.3c-8.5,0-16.6,0-24.7,0c0-8,0-16.1,0-24.6c-8.6,0-16.6,0-24.7,0c0-8,0-16.1,0-24.6
		c-8.6,0-16.6,0-24.7,0c0-8,0-16.1,0-24.6c-8.6,0-16.6,0-24.7,0c0-8.2,0-16.4,0-24.6c8.1,0,16.1,0,24.7,0
		C257.7,287,257.7,278.9,257.7,270.9z"/>
	<path class="st3" d="M183.8,270.9c0-8.2,0-16.4,0-24.6c24.7,0,49.3,0,74,0c0,8.2,0,16.4,0,24.6c-8.1,0-16.1,0-24.7,0
		c0,8.5,0,16.6,0,24.6c-8.2,0-16.4,0-24.7,0c0-8,0-16.1,0-24.6C199.9,270.9,191.8,270.9,183.8,270.9z"/>
	<path class="st1" d="M331.7,344.8c0-24.3,0-48.5,0-73.8c8-0.3,16,0,24.7-0.2c0,24.9,0,49.4,0,73.9
		C348.1,344.8,339.9,344.8,331.7,344.8z"/>
	<path class="st2" d="M430.3,197c-8.1,0-16.2,0-24.7,0c0-16.8,0-33,0-49.3c0-41,0-82.1,0-123.1c16.4,0,32.9,0,49.3,0
		c0,16.2,0,32.4,0,49.3c8.5,0,16.6,0,24.7,0c0,7.9,0,15.7,0,24.4c-3.9,0.1-7.9,0.2-11.8,0.2c-4.1,0-8.1,0-12.5,0
		c0,24.5,0,48.6,0,73.7c3.6,0.1,7.5,0.2,11.5,0.2c4.1,0,8.1,0,12.9,0c0,8.4,0,16.5,0,24.6c-8.2,0-16.4,0-24.7,0
		C446.7,197,438.5,197,430.3,197z"/>
	<path class="st3" d="M159.1,394c0-8.2,0-16.4,0-24.6c8.1,0,16.1,0,24.7,0c0-8.5,0-16.6,0-24.6c8.1,0,16.1,0,24.7,0
		c0-8.5,0-16.6,0-24.6c8.2,0,16.4,0,24.7,0c0,8,0,16.1,0,24.6c8.6,0,16.6,0,24.7,0c0,8,0,16.1,0,24.6c8.6,0,16.6,0,24.7,0
		c0,8.2,0,16.4,0,24.6c-8.1,0-16.1,0-24.7,0c0,8.5,0,16.6,0,24.6c-8.1,0-16.1,0-24.7,0c0,8.5,0,16.6,0,24.6c-8.2,0-16.4,0-24.7,0
		c0-8,0-16.1,0-24.6c-8.6,0-16.6,0-24.7,0c0-8,0-16.1,0-24.6C175.2,394,167.1,394,159.1,394z"/>
	<path class="st3" d="M159.1,270.9c8.2,0,16.4,0,24.7,0c0,8,0,16.1,0,24.6c8.6,0,16.6,0,24.7,0c0,8.2,0,16.4,0,24.6
		c-8.1,0-16.1,0-24.7,0c0,8.5,0,16.6,0,24.6c-8.1,0-16.1,0-24.7,0c0,8.5,0,16.6,0,24.6c-8.1,0-16.2,0-24.7,0c0-16.8,0-33,0-49.3
		c8.1,0,16.2,0,24.7,0C159.1,303.3,159.1,287.1,159.1,270.9z"/>
	<path d="M455,197c8.2,0,16.4,0,24.7,0c0,8,0,16.1,0,24.6c-8.6,0-16.6,0-24.7,0C455,213.4,455,205.2,455,197z"/>
	<path class="st1" d="M455,197c0,8.2,0,16.4,0,24.6c-8.1,0-16.1,0-24.7,0c0-8.5,0-16.6,0-24.6C438.5,197,446.7,197,455,197z"/>
	<path d="M331.7,344.8c8.2,0,16.4,0,24.7,0c0,40.8,0,81.7,0,123.1c-8.5,0-16.6,0-24.7,0c0-16,0-32.1,0-49c-3.9-0.1-7.8-0.2-11.8-0.2
		c-4.1,0-8.1,0-12.9,0c0-8.4,0-16.5,0-24.6c8.1,0,16.2,0,24.7,0C331.7,377.2,331.7,361,331.7,344.8z"/>
	<path d="M233.1,443.3c0-8,0-16.1,0-24.6c8.6,0,16.6,0,24.7,0c0,8,0,16.1,0,24.6C249.2,443.3,241.1,443.3,233.1,443.3z"/>
	<path d="M208.4,443.3c8.2,0,16.4,0,24.7,0c0,8.2,0,16.4,0,24.6c-8.2,0-16.4,0-24.7,0C208.4,459.7,208.4,451.5,208.4,443.3z"/>
	<path d="M282.4,394c0-8.2,0-16.4,0-24.6c8.1,0,16.1,0,24.7,0c0,8.5,0,16.6,0,24.6C298.8,394,290.6,394,282.4,394z"/>
	<path d="M257.7,418.7c0-8,0-16.1,0-24.6c8.6,0,16.6,0,24.7,0c0,8,0,16.1,0,24.6C273.8,418.7,265.8,418.7,257.7,418.7z"/>
	<path d="M183.8,418.7c8.1,0,16.1,0,24.7,0c0,8.5,0,16.6,0,24.6c-8.1,0-16.1,0-24.7,0C183.8,434.7,183.8,426.7,183.8,418.7z"/>
	<path d="M159.1,394c8.1,0,16.1,0,24.7,0c0,8.5,0,16.6,0,24.6c-8.1,0-16.1,0-24.7,0C159.1,410.1,159.1,402.1,159.1,394z"/>
	<path d="M233.1,295.5c0-8,0-16.1,0-24.6c8.6,0,16.6,0,24.7,0c0,8,0,16.1,0,24.6C249.2,295.5,241.1,295.5,233.1,295.5z"/>
	<path d="M208.4,320.2c0-8.2,0-16.4,0-24.6c8.2,0,16.4,0,24.7,0c0,8.2,0,16.4,0,24.6C224.8,320.2,216.6,320.2,208.4,320.2z"/>
	<path d="M257.7,344.8c-8.1,0-16.1,0-24.7,0c0-8.5,0-16.6,0-24.6c8.1,0,16.1,0,24.7,0C257.7,328.7,257.7,336.7,257.7,344.8z"/>
	<path d="M282.4,369.4c-8.1,0-16.1,0-24.7,0c0-8.5,0-16.6,0-24.6c8.1,0,16.1,0,24.7,0C282.4,353.3,282.4,361.4,282.4,369.4z"/>
	<path d="M208.4,295.5c-8.1,0-16.1,0-24.7,0c0-8.5,0-16.6,0-24.6c8.1,0,16.1,0,24.7,0C208.4,279.4,208.4,287.5,208.4,295.5z"/>
	<path d="M183.8,344.8c0-8,0-16.1,0-24.6c8.6,0,16.6,0,24.7,0c0,8,0,16.1,0,24.6C199.9,344.8,191.8,344.8,183.8,344.8z"/>
	<path d="M159.1,369.4c0-8,0-16.1,0-24.6c8.6,0,16.6,0,24.7,0c0,8,0,16.1,0,24.6C175.2,369.4,167.1,369.4,159.1,369.4z"/>
</g>
</svg>
