<?xml version="1.0" encoding="utf-8"?>
<!-- Generator: Adobe Illustrator 27.0.0, SVG Export Plug-In . SVG Version: 6.00 Build 0)  -->
<svg version="1.1" id="Calque_1" xmlns="http://www.w3.org/2000/svg" xmlns:xlink="http://www.w3.org/1999/xlink" x="0px" y="0px"
	 viewBox="0 0 50 50" style="enable-background:new 0 0 50 50;" xml:space="preserve">
<style type="text/css">
	.st0{fill:#FECE98;}
	.st1{fill:#45A4EB;}
	.st2{fill:#72C2FE;}
	.st3{fill:#FEC280;}
	.st4{fill:#FF0000;}
</style>
<g>
	<path class="st0" d="M33.7,25.8c-1.5,0.7-3,1.5-4.4,2.3C29.1,28,28.9,28,28.8,28c-4.8,0-9.7,0-14.5,0c-0.2,0-0.4,0-0.6,0.1
		C13.5,28,13.3,28,13.1,28c-2.6,0-5.1,0-7.7,0c-2.2,0-4.1-1.5-4.5-3.6c-0.3-1.3-0.1-2.6,0.8-3.7c0.3-0.4,0.3-0.5,0-0.9
		c-1.5-2-1-4.8,1-6.3C3,13.3,3,13.1,2.9,12.8c-1-2.1-0.2-4.5,1.5-5.6c0.2-0.1,0.3-0.3,0.2-0.5C3,3.8,5,0.4,8,0.1C8,0.1,8.1,0,8.1,0
		c4.9,0,9.8,0,14.7,0c0.5,0.2,1,0.1,1.5,0.2c1.4,0.1,2.8,0.3,4.1,0.6c2,0.4,3.9,1,5.7,1.8c-0.4,0.9-0.5,1.9-0.5,2.9
		c0,6.6,0,13.1,0,19.7C33.7,25.4,33.7,25.6,33.7,25.8z"/>
	<path class="st1" d="M33.7,25.8c0-0.2,0-0.4,0-0.6c0-6.6,0-13.1,0-19.7c0-1,0.1-2,0.5-2.9c0.8-1.3,1.9-2.2,3.5-2.5c0,0,0,0,0.1-0.1
		c0.1,0,0.1,0,0.2,0c0.4,0.2,0.9,0.1,1.4,0.1c0.7,0,0.7,0,0.7,0.6c0,2.3,0,4.5,0,6.8c0,0.6,0.1,1.1,0.6,1.5c0.5,0.3,1,0.4,1.5,0.2
		c0.6-0.3,0.9-0.8,0.9-1.4c0-2.3,0-4.7,0-7c0-0.4,0.1-0.6,0.6-0.6c1.5,0,3,0,4.5,0c0.7,0.2,1.1,0.7,1.1,1.4c0,0.2,0,0.3,0,0.5
		c0,8.1,0,16.1,0,24.2c0,1.4-0.5,1.9-1.9,1.9c-3.9,0-7.7,0-11.6,0c-1.5,0-2-0.5-2-1.9C33.7,26,33.7,25.9,33.7,25.8z"/>
	<path class="st2" d="M48,0.1c-1.5,0-3,0-4.5,0c-0.5,0-0.6,0.1-0.6,0.6c0,2.3,0,4.7,0,7c0,0.7-0.3,1.2-0.9,1.4
		c-0.5,0.3-1,0.2-1.5-0.2c-0.5-0.4-0.6-0.9-0.6-1.5c0-2.3,0-4.5,0-6.8c0-0.6,0-0.6-0.7-0.6c-0.5,0-0.9,0.1-1.4-0.1
		C41.3,0,44.6,0,48,0.1C48,0,48,0.1,48,0.1z"/>
	<path class="st3" d="M13.7,28.1c0.2-0.1,0.4-0.1,0.6-0.1c4.8,0,9.7,0,14.5,0c0.2,0,0.4-0.1,0.5,0.1c-1.8,1.2-3.5,2.4-5,4.1
		c-1.8,2-3,4.3-3.2,7c-0.2,2.2-1.9,3.4-4,3c-2.6-0.4-4.8-2.5-5.2-5.2c-0.2-1.8-0.1-3.7,0.4-5.5C12.6,30.4,13.1,29.2,13.7,28.1z"/>
	<path class="st4" d="M24.1,48.5c0,0.7-0.4,1.2-1,1.4c-0.6,0.2-1.3,0-1.7-0.6c-0.6-1-1.1-1.9-1.7-2.9c-0.4-0.7-0.1-1.6,0.6-1.9
		c0.7-0.4,1.5-0.2,2,0.5c0.6,0.9,1.1,1.9,1.6,2.8C24.1,48,24.1,48.3,24.1,48.5z"/>
	<path class="st4" d="M8.7,48.4c0-0.2,0.1-0.5,0.2-0.7c0.5-0.8,1-1.7,1.5-2.5c0.5-0.8,1.3-1.1,2.1-0.7c0.8,0.4,1,1.3,0.5,2.1
		c-0.5,0.9-1,1.8-1.5,2.6c-0.4,0.6-1.1,0.8-1.7,0.6C9,49.7,8.7,49.2,8.7,48.4z"/>
	<path class="st4" d="M5.4,36.2c0.6,0,1.1,0,1.7,0c0.8,0,1.4,0.7,1.4,1.5c0,0.8-0.7,1.4-1.5,1.4c-1.1,0-2.1,0-3.2,0
		c-0.8,0-1.4-0.7-1.5-1.5c0-0.8,0.6-1.5,1.4-1.5C4.4,36.2,4.9,36.2,5.4,36.2C5.4,36.2,5.4,36.2,5.4,36.2z"/>
	<path class="st4" d="M27.4,36.2c0.5,0,1.1,0,1.6,0c0.8,0,1.4,0.7,1.4,1.5c0,0.8-0.6,1.4-1.4,1.4c-1.1,0-2.1,0-3.2,0
		c-0.8,0-1.4-0.7-1.4-1.4c0-0.8,0.6-1.5,1.4-1.5C26.3,36.2,26.8,36.2,27.4,36.2z"/>
</g>
</svg>
