<?xml version="1.0" encoding="utf-8"?>
<!-- Generator: Adobe Illustrator 27.0.0, SVG Export Plug-In . SVG Version: 6.00 Build 0)  -->
<svg version="1.1" id="Calque_1" xmlns="http://www.w3.org/2000/svg" xmlns:xlink="http://www.w3.org/1999/xlink" x="0px" y="0px"
	 viewBox="0 0 50 50" style="enable-background:new 0 0 50 50;" xml:space="preserve">
<style type="text/css">
	.st0{fill:#FECE98;}
	.st1{fill:#45A4EB;}
	.st2{fill:#72C2FE;}
	.st3{fill:#FEC280;}
	.st4{fill:#2BCCB1;}
</style>
<g>
	<path class="st0" d="M16.3,24.2c1.5-0.7,3-1.5,4.4-2.3c0.1,0.2,0.3,0.1,0.5,0.1c4.8,0,9.7,0,14.5,0c0.2,0,0.4,0,0.6-0.1
		c0.2,0.2,0.4,0.1,0.6,0.1c2.6,0,5.1,0,7.7,0c2.2,0,4.1,1.5,4.5,3.6c0.3,1.3,0.1,2.6-0.8,3.7c-0.3,0.4-0.3,0.5,0,0.9
		c1.5,2,1,4.8-1,6.3c-0.3,0.2-0.3,0.4-0.2,0.7c1,2.1,0.2,4.5-1.5,5.6c-0.2,0.1-0.3,0.3-0.2,0.5c1.5,2.9-0.5,6.3-3.5,6.6
		c0,0-0.1,0.1-0.1,0.1c-4.9,0-9.8,0-14.7,0c-0.5-0.2-1-0.1-1.5-0.2c-1.4-0.1-2.8-0.3-4.1-0.6c-2-0.4-3.9-1-5.7-1.8
		c0.4-0.9,0.5-1.9,0.5-2.9c0-6.6,0-13.1,0-19.7C16.3,24.6,16.3,24.4,16.3,24.2z"/>
	<path class="st1" d="M16.3,24.2c0,0.2,0,0.4,0,0.6c0,6.6,0,13.1,0,19.7c0,1-0.1,2-0.5,2.9c-0.8,1.3-1.9,2.2-3.5,2.5
		c0,0,0,0-0.1,0.1c-0.1,0-0.1,0-0.2,0c-0.4-0.2-0.9-0.1-1.4-0.1c-0.7,0-0.7,0-0.7-0.6c0-2.3,0-4.5,0-6.8c0-0.6-0.1-1.1-0.6-1.5
		c-0.5-0.3-1-0.4-1.5-0.2c-0.6,0.3-0.9,0.8-0.9,1.4c0,2.3,0,4.7,0,7c0,0.4-0.1,0.6-0.6,0.6c-1.5,0-3,0-4.5,0
		c-0.7-0.2-1.1-0.7-1.1-1.4c0-0.2,0-0.3,0-0.5c0-8.1,0-16.1,0-24.2c0-1.4,0.5-1.9,1.9-1.9c3.9,0,7.7,0,11.6,0c1.5,0,2,0.5,2,1.9
		C16.3,24,16.3,24.1,16.3,24.2z"/>
	<path class="st2" d="M2,49.9c1.5,0,3,0,4.5,0c0.5,0,0.6-0.1,0.6-0.6c0-2.3,0-4.7,0-7c0-0.7,0.3-1.2,0.9-1.4c0.5-0.3,1-0.2,1.5,0.2
		c0.5,0.4,0.6,0.9,0.6,1.5c0,2.3,0,4.5,0,6.8c0,0.6,0,0.6,0.7,0.6c0.5,0,0.9-0.1,1.4,0.1C8.7,50,5.4,50,2,49.9C2,50,2,49.9,2,49.9z"
		/>
	<path class="st3" d="M36.3,21.9C36.1,22,35.9,22,35.7,22c-4.8,0-9.7,0-14.5,0c-0.2,0-0.4,0.1-0.5-0.1c1.8-1.2,3.5-2.4,5-4.1
		c1.8-2,3-4.3,3.2-7c0.2-2.2,1.9-3.4,4-3c2.6,0.4,4.8,2.5,5.2,5.2c0.2,1.8,0.1,3.7-0.4,5.5C37.4,19.6,36.9,20.8,36.3,21.9z"/>
	<path class="st4" d="M25.9,1.5c0-0.7,0.4-1.2,1-1.4c0.6-0.2,1.3,0,1.7,0.6c0.6,1,1.1,1.9,1.7,2.9c0.4,0.7,0.1,1.6-0.6,1.9
		c-0.7,0.4-1.5,0.2-2-0.5c-0.6-0.9-1.1-1.9-1.6-2.8C25.9,2,25.9,1.7,25.9,1.5z"/>
	<path class="st4" d="M41.3,1.6c0,0.2-0.1,0.5-0.2,0.7c-0.5,0.8-1,1.7-1.5,2.5c-0.5,0.8-1.3,1.1-2.1,0.7c-0.8-0.4-1-1.3-0.5-2.1
		c0.5-0.9,1-1.8,1.5-2.6c0.4-0.6,1.1-0.8,1.7-0.6C41,0.3,41.3,0.8,41.3,1.6z"/>
	<path class="st4" d="M44.6,13.8c-0.6,0-1.1,0-1.7,0c-0.8,0-1.4-0.7-1.4-1.5c0-0.8,0.7-1.4,1.5-1.4c1.1,0,2.1,0,3.2,0
		c0.8,0,1.4,0.7,1.5,1.5c0,0.8-0.6,1.5-1.4,1.5C45.6,13.8,45.1,13.8,44.6,13.8C44.6,13.8,44.6,13.8,44.6,13.8z"/>
	<path class="st4" d="M22.6,13.8c-0.5,0-1.1,0-1.6,0c-0.8,0-1.4-0.7-1.4-1.5c0-0.8,0.6-1.4,1.4-1.4c1.1,0,2.1,0,3.2,0
		c0.8,0,1.4,0.7,1.4,1.4c0,0.8-0.6,1.5-1.4,1.5C23.7,13.8,23.2,13.8,22.6,13.8z"/>
</g>
</svg>
